<svg width="241" height="245" viewBox="0 0 241 245" fill="none" xmlns="http://www.w3.org/2000/svg">
<g filter="url(#filter0_d_28_2409)">
<rect x="10" y="6" width="221" height="225" fill="white"/>
</g>
<path d="M64.9593 44.2287C64.9593 45.1086 64.2452 45.8227 63.3653 45.8227H34.674C33.7942 45.8227 33.0801 45.1086 33.0801 44.2287C33.0801 43.3489 33.7942 42.6348 34.674 42.6348H63.3653C64.2452 42.6348 64.9593 43.3489 64.9593 44.2287Z" fill="#DBC5FF"/>
<path d="M58.5836 61.9011C59.4634 61.9011 60.1775 61.187 60.1775 60.3071V49.1494H50.6138V60.3071C50.6138 61.187 51.3279 61.9011 52.2077 61.9011H58.5836Z" fill="#A974FF"/>
<path d="M47.4261 69.8709V49.1494H37.8623V69.8709C37.8623 70.7508 38.5764 71.4649 39.4563 71.4649H45.8321C46.712 71.4649 47.4261 70.7508 47.4261 69.8709Z" fill="#A974FF"/>
<rect x="10" y="6" width="221" height="3" fill="#A974FF"/>
<defs>
<filter id="filter0_d_28_2409" x="0" y="0" width="241" height="245" filterUnits="userSpaceOnUse" color-interpolation-filters="sRGB">
<feFlood flood-opacity="0" result="BackgroundImageFix"/>
<feColorMatrix in="SourceAlpha" type="matrix" values="0 0 0 0 0 0 0 0 0 0 0 0 0 0 0 0 0 0 127 0" result="hardAlpha"/>
<feOffset dy="4"/>
<feGaussianBlur stdDeviation="5"/>
<feComposite in2="hardAlpha" operator="out"/>
<feColorMatrix type="matrix" values="0 0 0 0 0 0 0 0 0 0.144 0 0 0 0 0.225 0 0 0 0.15 0"/>
<feBlend mode="normal" in2="BackgroundImageFix" result="effect1_dropShadow_28_2409"/>
<feBlend mode="normal" in="SourceGraphic" in2="effect1_dropShadow_28_2409" result="shape"/>
</filter>
</defs>
</svg>
