<svg width="477" height="402" viewBox="0 0 477 402" fill="none" xmlns="http://www.w3.org/2000/svg">
<path d="M539.399 28.6695V316.633C539.399 328.319 532.654 338.371 523.028 342.819L522.651 342.982C520.269 344.031 517.747 344.728 515.164 345.05C514.113 345.181 513.054 345.245 511.995 345.24H27.4306C26.3668 345.246 25.3038 345.182 24.2482 345.05C21.6668 344.728 19.1453 344.036 16.7609 342.995C16.6308 342.928 16.4898 342.873 16.3706 342.819C6.73093 338.371 0 328.319 0 316.633V28.6695C0 12.9035 12.3152 0.0732422 27.4306 0.0732422H511.995C527.097 0.0732422 539.399 12.8953 539.399 28.6695Z" fill="#C8D7EC"/>
<path d="M510.924 18.4902H28.5012C25.385 18.4974 22.3988 19.7404 20.1978 21.9464C17.9968 24.1525 16.7607 27.1416 16.7607 30.2578V328.614C19.1545 329.61 21.6739 330.273 24.248 330.582C25.304 330.709 26.3669 330.77 27.4305 330.764H511.995C513.054 330.769 514.112 330.708 515.164 330.582C517.739 330.273 520.259 329.606 522.651 328.601V30.2578C522.654 27.143 521.421 24.1544 519.222 21.9481C517.023 19.7418 514.039 18.4981 510.924 18.4902Z" fill="white"/>
<path d="M523.022 30.5808V44.5686H16.373V30.5808C16.373 22.7819 21.3338 16.4277 27.425 16.4277H511.987C518.062 16.4196 523.022 22.7819 523.022 30.5808Z" fill="#5681BF"/>
<path d="M53.4451 30.5848C53.4474 28.6505 51.8801 27.0806 49.9443 27.0782C48.0085 27.0758 46.4373 28.6419 46.4349 30.5762C46.4326 32.5105 47.9999 34.0805 49.9357 34.0829C51.8715 34.0853 53.4427 32.5191 53.4451 30.5848Z" fill="white"/>
<path d="M64.5564 30.5848C64.5588 28.6505 62.9914 27.0806 61.0556 27.0782C59.1198 27.0758 57.5486 28.6419 57.5463 30.5762C57.5439 32.5105 59.1113 34.0805 61.0471 34.0829C62.9829 34.0853 64.554 32.5191 64.5564 30.5848Z" fill="white"/>
<path d="M492.859 27.3062H81.2671C79.8074 27.3062 78.624 28.4895 78.624 29.9492V30.2176C78.624 31.6773 79.8074 32.8606 81.2671 32.8606H492.859C494.319 32.8606 495.502 31.6773 495.502 30.2176V29.9492C495.502 28.4895 494.319 27.3062 492.859 27.3062Z" fill="#3D5891"/>
<path d="M150.52 27.3032H125.06C123.637 27.3032 122.482 28.4574 122.482 29.8812V30.1469C122.482 31.5706 123.637 32.7248 125.06 32.7248H150.52C151.944 32.7248 153.098 31.5706 153.098 30.1469V29.8812C153.098 28.4574 151.944 27.3032 150.52 27.3032Z" fill="white"/>
<path d="M42.3279 30.5877C42.3302 28.6534 40.7629 27.0835 38.8271 27.0811C36.8913 27.0788 35.3201 28.6449 35.3178 30.5792C35.3154 32.5135 36.8827 34.0835 38.8185 34.0858C40.7543 34.0882 42.3255 32.522 42.3279 30.5877Z" fill="white"/>
<path d="M497.253 63.2891H160.704L160.512 145.172H497.061L497.253 63.2891Z" fill="#99B1DA"/>
<path d="M497.082 135.887L420.841 108.749L353.849 131.439L232.025 88.917L160.59 111.777L160.512 145.697H497.061L497.082 135.887Z" fill="#B5CAE8"/>
<path d="M484.475 70.6358H409.459C408.081 70.6325 406.758 71.1769 405.781 72.1492C404.804 73.1215 404.253 74.4419 404.25 75.8202C404.247 77.1984 404.791 78.5215 405.763 79.4983C406.736 80.4751 408.056 81.0258 409.434 81.029H484.451C485.829 81.0322 487.152 80.4878 488.129 79.5156C489.105 78.5433 489.656 77.2228 489.659 75.8446C489.663 74.4663 489.118 73.1433 488.146 72.1664C487.174 71.1896 485.853 70.639 484.475 70.6358Z" fill="white"/>
<path d="M411.381 76.957C411.162 76.9592 410.952 77.0472 410.797 77.2023C410.642 77.3574 410.554 77.5672 410.552 77.7865C410.552 78.008 410.64 78.2203 410.796 78.3769C410.953 78.5335 411.165 78.6215 411.387 78.6215C411.608 78.6215 411.821 78.5335 411.977 78.3769C412.134 78.2203 412.222 78.008 412.222 77.7865C412.22 77.5653 412.13 77.3539 411.972 77.1985C411.815 77.0431 411.603 76.9563 411.381 76.957Z" fill="#EDEDED"/>
<path d="M419.267 76.957C419.159 76.957 419.051 76.9786 418.952 77.0204C418.852 77.0623 418.762 77.1237 418.686 77.2009C418.61 77.2782 418.551 77.3698 418.511 77.4703C418.471 77.5709 418.451 77.6784 418.454 77.7865C418.45 77.8942 418.469 78.0015 418.509 78.1017C418.548 78.2019 418.608 78.2929 418.684 78.3691C418.76 78.4453 418.851 78.5051 418.952 78.5448C419.052 78.5844 419.159 78.6032 419.267 78.5998C419.375 78.6019 419.482 78.5825 419.583 78.5426C419.684 78.5027 419.775 78.4431 419.852 78.3674C419.93 78.2917 419.991 78.2013 420.033 78.1015C420.075 78.0018 420.096 77.8947 420.096 77.7865C420.096 77.5665 420.009 77.3555 419.853 77.2C419.698 77.0444 419.487 76.957 419.267 76.957Z" fill="#EDEDED"/>
<path d="M427.153 76.957C426.933 76.9592 426.724 77.0472 426.569 77.2023C426.413 77.3574 426.325 77.5672 426.323 77.7865C426.323 77.8947 426.345 78.0018 426.387 78.1015C426.429 78.2013 426.49 78.2917 426.567 78.3674C426.644 78.4432 426.736 78.5027 426.837 78.5426C426.937 78.5825 427.045 78.6019 427.153 78.5998C427.262 78.6034 427.371 78.5851 427.472 78.5458C427.574 78.5066 427.667 78.4473 427.745 78.3714C427.824 78.2955 427.886 78.2046 427.929 78.1041C427.971 78.0037 427.993 77.8957 427.993 77.7865C427.991 77.5653 427.901 77.3539 427.744 77.1985C427.587 77.0431 427.374 76.9563 427.153 76.957Z" fill="#EDEDED"/>
<path d="M382.741 94.9974C382.743 97.4846 382.007 99.9165 380.626 101.985C379.246 104.054 377.282 105.666 374.984 106.618C372.687 107.57 370.158 107.819 367.719 107.333C365.279 106.847 363.039 105.649 361.282 103.889C359.524 102.129 358.328 99.8872 357.845 97.4473C357.363 95.0074 357.615 92.4792 358.57 90.1826C359.525 87.8861 361.14 85.9246 363.21 84.5465C365.281 83.1684 367.714 82.4356 370.201 82.4409C373.525 82.4567 376.708 83.7851 379.056 86.137C381.405 88.4888 382.73 91.6735 382.741 94.9974Z" fill="white"/>
<path d="M319.2 122.474L316.118 122.482V119.403L319.198 119.395L319.2 122.474Z" fill="white"/>
<path d="M200.147 122.474L197.064 122.482V119.403L200.147 119.395V122.474Z" fill="white"/>
<path d="M319.194 81.6034L316.112 81.6115V78.5321L319.194 78.5239V81.6034Z" fill="white"/>
<path d="M259.72 81.6034L256.638 81.6115V78.5321L259.72 78.5239V81.6034Z" fill="white"/>
<path d="M259.622 122.474L256.54 122.482V119.403L259.622 119.395V122.474Z" fill="white"/>
<path d="M200.145 101.696L197.062 101.701V98.6216L200.145 98.6162V101.696Z" fill="white"/>
<path d="M319.197 101.406L316.115 101.414V98.3343L319.197 98.3262V101.406Z" fill="white"/>
<path d="M200.141 81.6034L197.059 81.6115V78.5321L200.141 78.5239V81.6034Z" fill="white"/>
<path d="M232.384 89.0339H231.652L224.826 89.0583V92.2544H231.628V109.49L235.423 109.465V92.2273H241.476H242.197V89.0068L232.384 89.0339Z" fill="white"/>
<path d="M257.773 101.693C257.798 100.261 257.467 98.8439 256.811 97.5701C255.493 95.1304 252.978 93.6557 249.887 93.6801C248.907 93.67 247.933 93.8305 247.008 94.1545H246.995C243.883 95.2389 241.806 98.0445 241.844 101.669C241.844 106.302 245.227 109.658 250.465 109.647C253.148 109.647 255.344 108.755 256.737 107.096L254.772 104.841C253.688 105.987 252.294 106.535 250.549 106.535C247.838 106.559 245.921 105.084 245.482 102.826L257.738 102.802C257.749 102.425 257.773 101.986 257.773 101.693ZM245.444 100.376C245.786 98.1069 247.521 96.5807 249.887 96.5807C252.254 96.5807 254.002 98.1177 254.295 100.362L245.444 100.376Z" fill="white"/>
<path d="M269.164 101.888L268.798 101.425L274.645 93.7886H270.704L266.871 98.912L263.049 93.7994L258.982 93.8238L263.591 99.9475H263.615L264.775 101.474L258.728 109.4H262.742L266.784 103.978L270.788 109.368H274.903L269.164 101.888Z" fill="white"/>
<path d="M286.816 108.044L285.962 105.897C285.38 106.348 284.659 106.581 283.924 106.556C282.519 106.556 281.755 105.743 281.755 104.214V96.7891H285.94V93.8614H281.755V90.313H278.117V93.875H275.528L275.553 96.8135L278.117 96.7891V104.303C278.114 104.54 278.129 104.777 278.163 105.011V105.025C278.41 107.987 280.332 109.562 283.487 109.549C284.805 109.549 286.122 109.196 287.011 108.489L286.816 108.044Z" fill="white"/>
<path d="M318.246 121.526H316.481C316.332 121.515 316.193 121.449 316.091 121.34C315.989 121.231 315.933 121.088 315.933 120.939C315.933 120.79 315.989 120.646 316.091 120.537C316.193 120.428 316.332 120.362 316.481 120.352H317.069V119.764C317.069 119.608 317.131 119.458 317.241 119.348C317.352 119.237 317.501 119.175 317.657 119.175C317.813 119.175 317.963 119.237 318.073 119.348C318.184 119.458 318.246 119.608 318.246 119.764V121.526Z" fill="white"/>
<path d="M311.816 120.344H309.485C309.406 120.343 309.328 120.358 309.255 120.388C309.182 120.418 309.116 120.462 309.06 120.518C309.005 120.573 308.961 120.64 308.932 120.713C308.902 120.786 308.887 120.864 308.888 120.943C308.888 121.096 308.947 121.243 309.054 121.353C309.161 121.462 309.307 121.525 309.46 121.528H311.805C311.955 121.518 312.096 121.451 312.199 121.341C312.302 121.231 312.359 121.086 312.359 120.936C312.359 120.785 312.302 120.641 312.199 120.531C312.096 120.421 311.955 120.354 311.805 120.344H311.816ZM304.811 120.344H302.467C302.316 120.354 302.176 120.421 302.073 120.531C301.97 120.641 301.913 120.785 301.913 120.936C301.913 121.086 301.97 121.231 302.073 121.341C302.176 121.451 302.316 121.518 302.467 121.528H304.811C304.962 121.518 305.102 121.451 305.205 121.341C305.308 121.231 305.365 121.086 305.365 120.936C305.365 120.785 305.308 120.641 305.205 120.531C305.102 120.421 304.962 120.354 304.811 120.344ZM297.79 120.344H295.459C295.301 120.346 295.15 120.41 295.038 120.521C294.926 120.633 294.862 120.785 294.86 120.943C294.863 121.099 294.927 121.249 295.039 121.358C295.152 121.468 295.302 121.529 295.459 121.528H297.79C297.941 121.518 298.081 121.451 298.184 121.341C298.287 121.231 298.344 121.086 298.344 120.936C298.344 120.785 298.287 120.641 298.184 120.531C298.081 120.421 297.941 120.354 297.79 120.344ZM290.783 120.344H288.444C288.293 120.354 288.153 120.421 288.05 120.531C287.947 120.641 287.89 120.785 287.89 120.936C287.89 121.086 287.947 121.231 288.05 121.341C288.153 121.451 288.293 121.518 288.444 121.528H290.775C290.93 121.524 291.078 121.462 291.189 121.353C291.301 121.245 291.366 121.098 291.374 120.943C291.375 120.865 291.36 120.787 291.331 120.715C291.301 120.642 291.258 120.576 291.203 120.52C291.148 120.465 291.083 120.42 291.011 120.39C290.939 120.36 290.861 120.344 290.783 120.344ZM283.776 120.344H281.433C281.283 120.354 281.143 120.421 281.04 120.531C280.937 120.641 280.88 120.785 280.88 120.936C280.88 121.086 280.937 121.231 281.04 121.341C281.143 121.451 281.283 121.518 281.433 121.528H283.776C283.932 121.527 284.081 121.465 284.193 121.356C284.305 121.247 284.37 121.099 284.375 120.943C284.375 120.784 284.312 120.631 284.199 120.519C284.087 120.407 283.934 120.344 283.776 120.344ZM276.771 120.344H274.44C274.289 120.352 274.148 120.417 274.043 120.526C273.939 120.635 273.88 120.779 273.879 120.93C273.877 121.08 273.932 121.226 274.034 121.337C274.136 121.448 274.276 121.517 274.426 121.528H276.771C276.921 121.518 277.062 121.451 277.164 121.341C277.267 121.231 277.324 121.086 277.324 120.936C277.324 120.785 277.267 120.641 277.164 120.531C277.062 120.421 276.921 120.354 276.771 120.344ZM269.763 120.344H267.432C267.351 120.338 267.27 120.349 267.193 120.377C267.116 120.404 267.046 120.447 266.987 120.502C266.927 120.558 266.88 120.625 266.847 120.7C266.815 120.774 266.798 120.855 266.798 120.936C266.798 121.017 266.815 121.098 266.847 121.172C266.88 121.247 266.927 121.314 266.987 121.37C267.046 121.425 267.116 121.468 267.193 121.495C267.27 121.523 267.351 121.534 267.432 121.528H269.739C269.82 121.535 269.901 121.524 269.978 121.498C270.055 121.471 270.126 121.429 270.186 121.375C270.246 121.32 270.294 121.253 270.327 121.179C270.36 121.105 270.378 121.024 270.379 120.943C270.38 120.862 270.364 120.781 270.333 120.706C270.301 120.631 270.254 120.564 270.196 120.508C270.137 120.451 270.067 120.408 269.991 120.38C269.915 120.351 269.834 120.339 269.753 120.344H269.763ZM262.756 120.344H260.425C260.266 120.346 260.115 120.41 260.003 120.521C259.891 120.633 259.828 120.785 259.826 120.943C259.826 121.021 259.842 121.098 259.872 121.17C259.903 121.241 259.947 121.306 260.003 121.361C260.058 121.415 260.124 121.458 260.197 121.487C260.269 121.516 260.347 121.53 260.425 121.528H262.756C262.906 121.518 263.047 121.451 263.15 121.341C263.252 121.231 263.309 121.086 263.309 120.936C263.309 120.785 263.252 120.641 263.15 120.531C263.047 120.421 262.906 120.354 262.756 120.344ZM255.748 120.344H253.404C253.248 120.349 253.099 120.414 252.99 120.525C252.881 120.637 252.819 120.787 252.818 120.943C252.818 121.098 252.88 121.247 252.99 121.357C253.099 121.467 253.248 121.528 253.404 121.528H255.748C255.899 121.518 256.039 121.451 256.142 121.341C256.245 121.231 256.302 121.086 256.302 120.936C256.302 120.785 256.245 120.641 256.142 120.531C256.039 120.421 255.899 120.354 255.748 120.344ZM248.741 120.344H246.399C246.249 120.354 246.108 120.421 246.005 120.531C245.903 120.641 245.845 120.785 245.845 120.936C245.845 121.086 245.903 121.231 246.005 121.341C246.108 121.451 246.249 121.518 246.399 121.528H248.741C248.891 121.518 249.032 121.451 249.135 121.341C249.238 121.231 249.295 121.086 249.295 120.936C249.295 120.785 249.238 120.641 249.135 120.531C249.032 120.421 248.891 120.354 248.741 120.344ZM241.723 120.344H239.392C239.241 120.354 239.101 120.421 238.998 120.531C238.895 120.641 238.838 120.785 238.838 120.936C238.838 121.086 238.895 121.231 238.998 121.341C239.101 121.451 239.241 121.518 239.392 121.528H241.723C241.879 121.527 242.029 121.465 242.14 121.356C242.252 121.247 242.317 121.099 242.322 120.943C242.323 120.864 242.308 120.786 242.278 120.713C242.248 120.64 242.204 120.573 242.148 120.518C242.092 120.462 242.026 120.418 241.953 120.388C241.88 120.358 241.802 120.343 241.723 120.344ZM234.726 120.344H232.395C232.245 120.354 232.104 120.421 232.001 120.531C231.899 120.641 231.841 120.785 231.841 120.936C231.841 121.086 231.899 121.231 232.001 121.341C232.104 121.451 232.245 121.518 232.395 121.528H234.726C234.807 121.534 234.889 121.523 234.965 121.495C235.042 121.468 235.112 121.425 235.172 121.37C235.231 121.314 235.279 121.247 235.311 121.172C235.343 121.098 235.36 121.017 235.36 120.936C235.36 120.855 235.343 120.774 235.311 120.7C235.279 120.625 235.231 120.558 235.172 120.502C235.112 120.447 235.042 120.404 234.965 120.377C234.889 120.349 234.807 120.338 234.726 120.344ZM227.722 120.344H225.377C225.227 120.354 225.086 120.421 224.983 120.531C224.88 120.641 224.823 120.785 224.823 120.936C224.823 121.086 224.88 121.231 224.983 121.341C225.086 121.451 225.227 121.518 225.377 121.528H227.708C227.858 121.52 228 121.455 228.104 121.346C228.208 121.237 228.267 121.093 228.269 120.942C228.271 120.792 228.215 120.646 228.113 120.535C228.012 120.424 227.872 120.355 227.722 120.344ZM220.714 120.344H218.369C218.211 120.346 218.06 120.41 217.948 120.521C217.836 120.633 217.772 120.785 217.77 120.943C217.774 121.099 217.838 121.248 217.95 121.358C218.062 121.467 218.213 121.528 218.369 121.528H220.714C220.864 121.518 221.005 121.451 221.108 121.341C221.21 121.231 221.268 121.086 221.268 120.936C221.268 120.785 221.21 120.641 221.108 120.531C221.005 120.421 220.864 120.354 220.714 120.344ZM213.693 120.344H211.362C211.205 120.346 211.056 120.411 210.946 120.523C210.837 120.635 210.776 120.786 210.776 120.943C210.776 121.098 210.838 121.247 210.948 121.357C211.058 121.467 211.206 121.528 211.362 121.528H213.693C213.843 121.518 213.984 121.451 214.087 121.341C214.19 121.231 214.247 121.086 214.247 120.936C214.247 120.785 214.19 120.641 214.087 120.531C213.984 120.421 213.843 120.354 213.693 120.344ZM206.688 120.344H204.354C204.204 120.354 204.064 120.421 203.961 120.531C203.858 120.641 203.801 120.785 203.801 120.936C203.801 121.086 203.858 121.231 203.961 121.341C204.064 121.451 204.204 121.518 204.354 121.528H206.688C206.844 121.525 206.992 121.462 207.103 121.354C207.213 121.245 207.279 121.098 207.285 120.943C207.285 120.784 207.222 120.632 207.11 120.52C206.999 120.408 206.847 120.344 206.688 120.344Z" fill="white"/>
<path d="M199.678 121.525H197.916V119.763C197.926 119.614 197.992 119.475 198.101 119.373C198.21 119.271 198.354 119.215 198.503 119.215C198.652 119.215 198.796 119.271 198.905 119.373C199.013 119.475 199.08 119.614 199.09 119.763V120.351H199.675C199.756 120.346 199.836 120.357 199.912 120.384C199.988 120.411 200.058 120.453 200.117 120.508C200.176 120.564 200.223 120.63 200.255 120.704C200.287 120.778 200.303 120.858 200.303 120.938C200.303 121.019 200.287 121.099 200.255 121.173C200.223 121.247 200.176 121.313 200.117 121.368C200.058 121.423 199.988 121.466 199.912 121.493C199.836 121.52 199.756 121.531 199.675 121.525H199.678Z" fill="white"/>
<path d="M198.531 112.366C198.373 112.366 198.221 112.43 198.109 112.542C197.997 112.654 197.935 112.806 197.935 112.965V115.234C197.935 115.389 197.996 115.538 198.106 115.648C198.216 115.758 198.365 115.819 198.52 115.819C198.676 115.819 198.824 115.758 198.934 115.648C199.044 115.538 199.106 115.389 199.106 115.234V112.965C199.107 112.81 199.047 112.661 198.94 112.549C198.833 112.437 198.686 112.371 198.531 112.366ZM198.531 105.589C198.453 105.588 198.375 105.602 198.303 105.631C198.231 105.66 198.165 105.703 198.109 105.758C198.053 105.813 198.009 105.878 197.979 105.95C197.948 106.022 197.932 106.099 197.932 106.177V108.432C197.927 108.514 197.938 108.595 197.965 108.672C197.992 108.748 198.035 108.818 198.091 108.878C198.146 108.937 198.213 108.985 198.288 109.017C198.362 109.049 198.443 109.066 198.524 109.066C198.606 109.066 198.686 109.049 198.761 109.017C198.835 108.985 198.902 108.937 198.958 108.878C199.014 108.818 199.056 108.748 199.084 108.672C199.111 108.595 199.122 108.514 199.117 108.432V106.177C199.118 106.023 199.059 105.874 198.952 105.763C198.845 105.652 198.699 105.588 198.545 105.583L198.531 105.589ZM198.531 98.7846C198.375 98.7866 198.227 98.8487 198.115 98.9577C198.004 99.0668 197.94 99.2145 197.935 99.3702V101.65C197.933 101.66 197.935 101.67 197.939 101.678C197.943 101.687 197.95 101.694 197.959 101.699C197.967 101.841 198.03 101.974 198.135 102.07C198.24 102.165 198.378 102.216 198.52 102.211C198.666 102.214 198.808 102.161 198.916 102.063C199.025 101.966 199.093 101.831 199.106 101.685C199.106 101.685 199.106 101.65 199.106 101.636V99.3702C199.105 99.2206 199.048 99.0768 198.946 98.9674C198.844 98.8579 198.705 98.7908 198.555 98.7792L198.531 98.7846ZM198.545 91.9886C198.389 91.9886 198.24 92.0503 198.131 92.1601C198.021 92.2699 197.959 92.4189 197.959 92.5742V94.8431C197.958 94.9963 198.018 95.1436 198.125 95.2532C198.232 95.3628 198.378 95.4258 198.531 95.4287C198.609 95.4301 198.686 95.416 198.759 95.3873C198.831 95.3585 198.897 95.3157 198.953 95.2612C199.009 95.2067 199.053 95.1417 199.084 95.0699C199.114 94.9981 199.13 94.9211 199.13 94.8431V92.5742C199.133 92.4217 199.076 92.2742 198.971 92.1636C198.866 92.053 198.721 91.9882 198.569 91.9832L198.545 91.9886ZM198.569 85.1954C198.414 85.1954 198.265 85.2571 198.155 85.3669C198.045 85.4767 197.984 85.6256 197.984 85.7809V88.039C197.978 88.1194 197.989 88.2001 198.016 88.2761C198.043 88.352 198.086 88.4216 198.141 88.4805C198.196 88.5394 198.262 88.5864 198.336 88.6185C198.41 88.6506 198.49 88.6671 198.57 88.6671C198.651 88.6671 198.731 88.6506 198.805 88.6185C198.879 88.5864 198.945 88.5394 199 88.4805C199.055 88.4216 199.098 88.352 199.125 88.2761C199.152 88.2001 199.163 88.1194 199.157 88.039V85.7809C199.159 85.7051 199.146 85.6296 199.119 85.5589C199.091 85.4881 199.05 85.4235 198.998 85.3686C198.945 85.3137 198.883 85.2697 198.813 85.239C198.744 85.2084 198.669 85.1917 198.593 85.1899L198.569 85.1954Z" fill="white"/>
<path d="M198.596 81.8284C198.441 81.8284 198.292 81.7667 198.182 81.6569C198.072 81.5471 198.011 81.3982 198.011 81.2429V79.4808H199.773C199.853 79.4754 199.934 79.4865 200.01 79.5135C200.086 79.5405 200.155 79.5829 200.214 79.6379C200.273 79.6929 200.32 79.7595 200.352 79.8334C200.384 79.9074 200.401 79.9871 200.401 80.0677C200.401 80.1483 200.384 80.2281 200.352 80.302C200.32 80.376 200.273 80.4425 200.214 80.4976C200.155 80.5526 200.086 80.5949 200.01 80.622C199.934 80.649 199.853 80.6601 199.773 80.6546H199.185V81.2429C199.184 81.3984 199.122 81.5473 199.011 81.6571C198.901 81.7668 198.752 81.8284 198.596 81.8284Z" fill="white"/>
<path d="M311.902 79.4806H309.57C309.492 79.481 309.415 79.4968 309.344 79.5272C309.272 79.5576 309.207 79.602 309.152 79.6577C309.098 79.7134 309.055 79.7795 309.026 79.8519C308.998 79.9244 308.983 80.0018 308.985 80.0797C308.988 80.2329 309.051 80.3788 309.16 80.4858C309.27 80.5928 309.417 80.6524 309.57 80.6517H311.902C312.056 80.6532 312.205 80.5942 312.317 80.4873C312.428 80.3804 312.493 80.2341 312.498 80.0797C312.5 80.0007 312.486 79.922 312.457 79.8485C312.428 79.775 312.384 79.7082 312.329 79.6521C312.273 79.5961 312.206 79.552 312.133 79.5225C312.059 79.493 311.981 79.4788 311.902 79.4806ZM304.894 79.4806H302.539C302.461 79.4813 302.385 79.4975 302.314 79.5282C302.243 79.5588 302.179 79.6034 302.126 79.6593C302.073 79.7152 302.031 79.7811 302.004 79.8534C301.976 79.9256 301.964 80.0026 301.967 80.0797C301.964 80.1561 301.978 80.2321 302.005 80.3032C302.033 80.3743 302.075 80.4392 302.128 80.4938C302.182 80.5484 302.246 80.5918 302.316 80.6212C302.387 80.6507 302.462 80.6657 302.539 80.6653H304.883C304.96 80.6671 305.037 80.6537 305.109 80.6259C305.18 80.5981 305.246 80.5565 305.302 80.5034C305.357 80.4503 305.402 80.3867 305.433 80.3163C305.464 80.246 305.481 80.1702 305.483 80.0933C305.485 80.0142 305.472 79.9354 305.443 79.8615C305.415 79.7876 305.372 79.7202 305.317 79.6631C305.263 79.606 305.197 79.5605 305.124 79.5292C305.052 79.4978 304.973 79.4813 304.894 79.4806ZM297.9 79.4806H295.556C295.477 79.4799 295.4 79.4949 295.327 79.5249C295.255 79.555 295.19 79.5993 295.135 79.6552C295.08 79.7112 295.037 79.7777 295.009 79.8506C294.981 79.9236 294.968 80.0015 294.97 80.0797C294.97 80.1549 294.984 80.2295 295.013 80.299C295.042 80.3686 295.084 80.4318 295.137 80.485C295.19 80.5382 295.253 80.5803 295.323 80.6089C295.392 80.6375 295.467 80.6521 295.542 80.6517H297.887C298.042 80.6517 298.191 80.59 298.301 80.4802C298.411 80.3704 298.472 80.2215 298.472 80.0662C298.472 79.9109 298.411 79.7619 298.301 79.6521C298.191 79.5423 298.042 79.4806 297.887 79.4806H297.9ZM290.893 79.4806H288.548C288.39 79.4814 288.238 79.5448 288.126 79.6571C288.015 79.7693 287.952 79.9213 287.952 80.0797C287.955 80.2346 288.02 80.3817 288.132 80.4889C288.244 80.5961 288.393 80.6546 288.548 80.6517H290.882C290.957 80.6521 291.032 80.6375 291.101 80.6089C291.171 80.5803 291.234 80.5382 291.287 80.485C291.341 80.4318 291.383 80.3686 291.411 80.299C291.44 80.2295 291.455 80.1549 291.454 80.0797C291.457 80.0026 291.444 79.9256 291.417 79.8534C291.39 79.7811 291.348 79.7152 291.295 79.6593C291.241 79.6034 291.177 79.5588 291.107 79.5282C291.036 79.4975 290.959 79.4813 290.882 79.4806H290.893ZM283.875 79.4806H281.541C281.382 79.4814 281.231 79.5448 281.119 79.6571C281.007 79.7693 280.944 79.9213 280.944 80.0797C280.945 80.1567 280.961 80.2328 280.992 80.3035C281.022 80.3742 281.067 80.438 281.122 80.4913C281.178 80.5446 281.243 80.5863 281.315 80.6138C281.387 80.6414 281.464 80.6542 281.541 80.6517H283.875C284.028 80.6524 284.175 80.5928 284.285 80.4858C284.394 80.3788 284.457 80.2329 284.46 80.0797C284.462 80.0018 284.448 79.9244 284.419 79.8519C284.39 79.7795 284.347 79.7134 284.293 79.6577C284.238 79.602 284.173 79.5576 284.102 79.5272C284.03 79.4968 283.953 79.481 283.875 79.4806ZM276.867 79.4806H274.522C274.445 79.4813 274.369 79.4975 274.298 79.5281C274.227 79.5588 274.162 79.6033 274.109 79.6591C274.055 79.715 274.014 79.7809 273.986 79.8532C273.958 79.9254 273.945 80.0024 273.948 80.0797C273.948 80.1551 273.963 80.2297 273.992 80.2992C274.021 80.3688 274.063 80.432 274.116 80.4851C274.17 80.5383 274.233 80.5804 274.303 80.6089C274.372 80.6375 274.447 80.6521 274.522 80.6517H276.867C277.021 80.6492 277.167 80.5889 277.278 80.4828C277.388 80.3767 277.455 80.2327 277.464 80.0797C277.465 80.001 277.45 79.9228 277.421 79.8498C277.391 79.7768 277.347 79.7105 277.292 79.6546C277.236 79.5988 277.17 79.5547 277.097 79.5248C277.024 79.4949 276.946 79.4799 276.867 79.4806ZM269.86 79.4806H267.515C267.438 79.4813 267.361 79.4975 267.291 79.5282C267.22 79.5588 267.156 79.6034 267.102 79.6593C267.049 79.7152 267.008 79.7811 266.98 79.8534C266.953 79.9256 266.94 80.0026 266.943 80.0797C266.943 80.1549 266.957 80.2295 266.986 80.299C267.014 80.3686 267.057 80.4318 267.11 80.485C267.163 80.5382 267.226 80.5803 267.296 80.6089C267.365 80.6375 267.44 80.6521 267.515 80.6517H269.86C270.015 80.6517 270.164 80.59 270.274 80.4802C270.384 80.3704 270.445 80.2215 270.445 80.0662C270.445 79.9109 270.384 79.7619 270.274 79.6521C270.164 79.5423 270.015 79.4806 269.86 79.4806ZM262.839 79.4806H260.521C260.442 79.4799 260.364 79.4949 260.291 79.5248C260.218 79.5546 260.152 79.5987 260.096 79.6545C260.04 79.7103 259.996 79.7766 259.966 79.8496C259.936 79.9226 259.921 80.0009 259.922 80.0797C259.922 80.1579 259.937 80.2353 259.967 80.3074C259.997 80.3795 260.042 80.4448 260.098 80.4995C260.153 80.5541 260.22 80.5969 260.292 80.6254C260.365 80.6539 260.443 80.6674 260.521 80.6653H262.852C262.93 80.6682 263.007 80.6556 263.079 80.6282C263.151 80.6008 263.217 80.5592 263.273 80.5059C263.329 80.4526 263.373 80.3886 263.404 80.3177C263.435 80.2468 263.451 80.1705 263.452 80.0933C263.455 80.0118 263.442 79.9304 263.413 79.8543C263.383 79.7783 263.338 79.7092 263.281 79.6515C263.223 79.5938 263.154 79.5488 263.078 79.5194C263.002 79.49 262.92 79.4768 262.839 79.4806ZM255.845 79.4806H253.514C253.435 79.4788 253.356 79.493 253.282 79.5225C253.209 79.5519 253.142 79.596 253.086 79.652C253.03 79.708 252.986 79.7748 252.956 79.8483C252.927 79.9218 252.913 80.0006 252.915 80.0797C252.915 80.157 252.931 80.2333 252.962 80.3041C252.993 80.375 253.037 80.439 253.093 80.4923C253.149 80.5457 253.215 80.5873 253.287 80.6146C253.36 80.642 253.437 80.6546 253.514 80.6517H255.834C255.989 80.6517 256.138 80.59 256.248 80.4802C256.358 80.3704 256.42 80.2215 256.42 80.0662C256.42 79.9109 256.358 79.7619 256.248 79.6521C256.138 79.5423 255.989 79.4806 255.834 79.4806H255.845ZM248.838 79.4806H246.495C246.417 79.4799 246.339 79.4949 246.267 79.5249C246.195 79.5549 246.129 79.5992 246.074 79.6551C246.019 79.711 245.976 79.7775 245.947 79.8504C245.919 79.9234 245.905 80.0014 245.907 80.0797C245.908 80.1561 245.923 80.2317 245.953 80.302C245.983 80.3723 246.027 80.4359 246.081 80.4892C246.136 80.5425 246.201 80.5843 246.272 80.6122C246.343 80.6401 246.419 80.6535 246.495 80.6517H248.838C248.913 80.6521 248.988 80.6375 249.057 80.6089C249.127 80.5804 249.19 80.5383 249.244 80.4851C249.297 80.432 249.34 80.3688 249.368 80.2992C249.397 80.2297 249.412 80.1551 249.412 80.0797C249.415 80.0024 249.402 79.9254 249.374 79.8532C249.346 79.7809 249.305 79.715 249.251 79.6591C249.198 79.6033 249.133 79.5588 249.062 79.5281C248.991 79.4975 248.915 79.4813 248.838 79.4806ZM241.83 79.4806H239.488C239.331 79.4854 239.181 79.55 239.07 79.6614C238.958 79.7727 238.894 79.9224 238.889 80.0797C238.891 80.1566 238.908 80.2324 238.939 80.3028C238.97 80.3732 239.014 80.4367 239.07 80.4898C239.126 80.543 239.191 80.5846 239.263 80.6124C239.335 80.6401 239.411 80.6535 239.488 80.6517H241.83C241.906 80.6521 241.98 80.6375 242.05 80.6089C242.12 80.5804 242.183 80.5383 242.236 80.4851C242.29 80.432 242.332 80.3688 242.361 80.2992C242.39 80.2297 242.405 80.1551 242.405 80.0797C242.407 80.0024 242.394 79.9254 242.367 79.8532C242.339 79.7809 242.297 79.715 242.244 79.6591C242.19 79.6033 242.126 79.5588 242.055 79.5281C241.984 79.4975 241.908 79.4813 241.83 79.4806ZM234.812 79.4806H232.481C232.403 79.481 232.326 79.4968 232.254 79.5272C232.182 79.5576 232.117 79.602 232.063 79.6577C232.008 79.7134 231.965 79.7795 231.936 79.8519C231.908 79.9244 231.894 80.0018 231.895 80.0797C231.898 80.2329 231.961 80.3788 232.071 80.4858C232.18 80.5928 232.327 80.6524 232.481 80.6517H234.812C234.967 80.6517 235.116 80.59 235.226 80.4802C235.336 80.3704 235.397 80.2215 235.397 80.0662C235.397 79.9109 235.336 79.7619 235.226 79.6521C235.116 79.5423 234.967 79.4806 234.812 79.4806ZM227.804 79.4806H225.473C225.395 79.4799 225.317 79.4949 225.245 79.5249C225.173 79.555 225.107 79.5993 225.053 79.6552C224.998 79.7112 224.955 79.7777 224.927 79.8506C224.898 79.9236 224.885 80.0015 224.888 80.0797C224.888 80.1559 224.903 80.2312 224.933 80.3013C224.963 80.3715 225.006 80.435 225.061 80.4882C225.115 80.5414 225.18 80.5833 225.251 80.6114C225.321 80.6394 225.397 80.6531 225.473 80.6517H227.804C227.881 80.6535 227.958 80.6401 228.03 80.6124C228.101 80.5846 228.167 80.543 228.222 80.4898C228.278 80.4367 228.323 80.3732 228.354 80.3028C228.385 80.2324 228.402 80.1566 228.404 80.0797C228.404 80.0009 228.389 79.9226 228.359 79.8496C228.33 79.7766 228.285 79.7103 228.23 79.6545C228.174 79.5987 228.108 79.5546 228.035 79.5248C227.962 79.4949 227.883 79.4799 227.804 79.4806ZM220.811 79.4806H218.466C218.388 79.4802 218.31 79.4956 218.238 79.5257C218.166 79.5558 218.101 79.6002 218.046 79.6561C217.991 79.712 217.949 79.7783 217.92 79.8511C217.892 79.9238 217.878 80.0016 217.88 80.0797C217.88 80.1551 217.895 80.2297 217.924 80.2992C217.953 80.3688 217.995 80.432 218.049 80.4851C218.102 80.5383 218.165 80.5804 218.235 80.6089C218.305 80.6375 218.38 80.6521 218.455 80.6517H220.797C220.952 80.6535 221.102 80.5935 221.213 80.485C221.324 80.3765 221.388 80.2282 221.389 80.0729C221.391 79.9177 221.331 79.768 221.223 79.6569C221.114 79.5459 220.966 79.4824 220.811 79.4806ZM213.803 79.4806H211.456C211.377 79.4799 211.299 79.4949 211.226 79.5248C211.153 79.5547 211.087 79.5988 211.031 79.6546C210.976 79.7105 210.932 79.7768 210.902 79.8498C210.873 79.9228 210.858 80.001 210.859 80.0797C210.859 80.1577 210.874 80.2348 210.904 80.3068C210.934 80.3787 210.978 80.4439 211.034 80.4985C211.089 80.5531 211.155 80.596 211.228 80.6246C211.3 80.6533 211.378 80.6671 211.456 80.6653H213.787C213.942 80.6685 214.092 80.6099 214.205 80.5024C214.317 80.3949 214.381 80.2472 214.385 80.0919C214.388 79.9366 214.329 79.7864 214.222 79.6743C214.114 79.5622 213.967 79.4974 213.811 79.4942L213.803 79.4806ZM206.785 79.4806H204.454C204.295 79.4806 204.142 79.5438 204.03 79.6561C203.918 79.7685 203.854 79.9208 203.854 80.0797C203.856 80.1566 203.873 80.2324 203.904 80.3028C203.935 80.3732 203.98 80.4367 204.036 80.4898C204.091 80.543 204.157 80.5846 204.228 80.6124C204.3 80.6401 204.377 80.6535 204.454 80.6517H206.785C206.938 80.6524 207.085 80.5928 207.195 80.4858C207.305 80.3788 207.368 80.2329 207.37 80.0797C207.372 80.0018 207.358 79.9244 207.329 79.8519C207.3 79.7795 207.257 79.7134 207.203 79.6577C207.148 79.602 207.083 79.5576 207.012 79.5272C206.94 79.4968 206.863 79.481 206.785 79.4806Z" fill="white"/>
<path d="M317.749 81.8283C317.594 81.8283 317.445 81.7666 317.335 81.6568C317.226 81.547 317.164 81.3981 317.164 81.2428V80.6654H316.578C316.498 80.6708 316.417 80.6597 316.341 80.6327C316.265 80.6057 316.196 80.5633 316.137 80.5083C316.078 80.4533 316.031 80.3867 315.999 80.3128C315.967 80.2388 315.95 80.1591 315.95 80.0785C315.95 79.9979 315.967 79.9181 315.999 79.8442C316.031 79.7702 316.078 79.7037 316.137 79.6487C316.196 79.5936 316.265 79.5513 316.341 79.5243C316.417 79.4972 316.498 79.4861 316.578 79.4916H318.34V81.2536C318.337 81.4077 318.273 81.5543 318.162 81.6618C318.052 81.7693 317.904 81.8291 317.749 81.8283Z" fill="white"/>
<path d="M317.676 112.366C317.52 112.369 317.37 112.433 317.261 112.545C317.151 112.657 317.09 112.808 317.091 112.965V115.234C317.091 115.389 317.153 115.538 317.262 115.648C317.372 115.758 317.521 115.819 317.676 115.819C317.832 115.819 317.981 115.758 318.09 115.648C318.2 115.538 318.262 115.389 318.262 115.234V112.965C318.263 112.808 318.202 112.657 318.092 112.545C317.982 112.433 317.833 112.369 317.676 112.366ZM317.701 105.589C317.623 105.588 317.545 105.602 317.473 105.631C317.4 105.66 317.334 105.703 317.279 105.758C317.223 105.813 317.179 105.878 317.148 105.95C317.118 106.022 317.102 106.099 317.102 106.177V108.432C317.096 108.513 317.107 108.593 317.134 108.669C317.161 108.745 317.204 108.815 317.259 108.874C317.314 108.933 317.38 108.98 317.454 109.012C317.528 109.044 317.608 109.061 317.689 109.061C317.769 109.061 317.849 109.044 317.923 109.012C317.997 108.98 318.063 108.933 318.118 108.874C318.173 108.815 318.216 108.745 318.243 108.669C318.27 108.593 318.281 108.513 318.275 108.432V106.177C318.278 106.1 318.264 106.023 318.236 105.952C318.209 105.88 318.167 105.814 318.113 105.759C318.06 105.704 317.996 105.66 317.925 105.63C317.854 105.599 317.778 105.584 317.701 105.583V105.589ZM317.701 98.7846C317.545 98.7866 317.396 98.8487 317.285 98.9577C317.174 99.0668 317.109 99.2145 317.104 99.3702V101.65C317.104 101.805 317.166 101.954 317.276 102.064C317.386 102.174 317.535 102.235 317.69 102.235C317.845 102.235 317.994 102.174 318.104 102.064C318.214 101.954 318.275 101.805 318.275 101.65V99.3702C318.278 99.2188 318.221 99.0724 318.117 98.9621C318.014 98.8518 317.871 98.7862 317.72 98.7792L317.701 98.7846ZM317.714 91.9886C317.559 91.9886 317.41 92.0503 317.3 92.1601C317.19 92.2699 317.129 92.4189 317.129 92.5742L317.115 94.8431C317.125 94.9933 317.192 95.134 317.302 95.2367C317.412 95.3395 317.557 95.3967 317.708 95.3967C317.858 95.3967 318.003 95.3395 318.113 95.2367C318.223 95.134 318.29 94.9933 318.3 94.8431V92.5742C318.302 92.497 318.288 92.4202 318.26 92.3484C318.231 92.2766 318.189 92.2112 318.135 92.1561C318.081 92.101 318.016 92.0573 317.945 92.0276C317.873 91.9979 317.797 91.9828 317.72 91.9832L317.714 91.9886ZM317.714 85.1954C317.561 85.1982 317.415 85.2612 317.308 85.3708C317.201 85.4804 317.142 85.6277 317.142 85.7809L317.118 88.039C317.112 88.1202 317.124 88.2016 317.151 88.2782C317.178 88.3548 317.221 88.425 317.277 88.4845C317.332 88.5439 317.399 88.5913 317.474 88.6236C317.548 88.656 317.629 88.6728 317.71 88.6728C317.792 88.6728 317.872 88.656 317.947 88.6236C318.021 88.5913 318.088 88.5439 318.144 88.4845C318.2 88.425 318.242 88.3548 318.27 88.2782C318.297 88.2016 318.308 88.1202 318.303 88.039V85.7809C318.303 85.6281 318.245 85.481 318.139 85.3707C318.033 85.2604 317.889 85.1956 317.736 85.1899L317.714 85.1954Z" fill="white"/>
<path d="M241.378 124.713L243.17 133.881L244.666 131.322L245.775 133.006L247.377 131.978L246.268 130.295L249.209 129.864L241.378 124.713Z" fill="white"/>
<path opacity="0.6" d="M223.706 164.922H165.383C164.539 164.922 163.854 165.607 163.854 166.451V224.313C163.854 225.158 164.539 225.842 165.383 225.842H223.706C224.551 225.842 225.235 225.158 225.235 224.313V166.451C225.235 165.607 224.551 164.922 223.706 164.922Z" fill="#5681BF"/>
<path d="M220.494 225.845C221.751 225.845 222.956 225.346 223.845 224.457C224.734 223.569 225.234 222.364 225.235 221.107V169.661C225.236 168.743 224.97 167.844 224.469 167.074C223.969 166.304 223.255 165.696 222.416 165.324C201.049 198.509 177.723 214.064 163.862 220.92V221.099C163.863 222.356 164.363 223.561 165.252 224.449C166.141 225.338 167.347 225.837 168.603 225.837L220.494 225.845Z" fill="#B5CAE8"/>
<path d="M227.396 230.64H161.691C160.986 230.64 160.31 230.359 159.811 229.861C159.312 229.362 159.031 228.686 159.029 227.981V162.786C159.031 162.081 159.312 161.405 159.811 160.906C160.31 160.408 160.986 160.128 161.691 160.127H227.396C228.101 160.127 228.778 160.407 229.277 160.906C229.776 161.404 230.057 162.081 230.058 162.786V227.981C230.057 228.687 229.776 229.363 229.277 229.862C228.778 230.36 228.101 230.64 227.396 230.64ZM161.691 162.233C161.547 162.233 161.41 162.29 161.308 162.392C161.206 162.494 161.149 162.632 161.149 162.775V227.97C161.149 228.114 161.206 228.252 161.308 228.354C161.41 228.455 161.547 228.512 161.691 228.512H227.396C227.538 228.509 227.674 228.451 227.775 228.35C227.876 228.249 227.934 228.113 227.938 227.97V162.775C227.934 162.633 227.876 162.497 227.775 162.396C227.674 162.295 227.538 162.237 227.396 162.233H161.691Z" fill="#5681BF"/>
<path d="M177.768 208.201H194.462C194.77 208.2 195.072 208.116 195.336 207.957C195.6 207.798 195.816 207.569 195.96 207.297C196.104 207.024 196.171 206.718 196.154 206.41C196.137 206.102 196.036 205.805 195.863 205.55L187.516 193.278C187.361 193.049 187.152 192.862 186.907 192.733C186.663 192.603 186.39 192.536 186.114 192.536C185.837 192.536 185.565 192.603 185.32 192.733C185.076 192.862 184.866 193.049 184.711 193.278L176.367 205.55C176.194 205.805 176.093 206.102 176.076 206.41C176.059 206.718 176.126 207.024 176.27 207.297C176.414 207.569 176.63 207.798 176.894 207.957C177.158 208.116 177.46 208.2 177.768 208.201Z" fill="white"/>
<path d="M193.434 208.201H210.128C210.436 208.2 210.738 208.116 211.002 207.957C211.266 207.798 211.482 207.569 211.626 207.297C211.77 207.024 211.837 206.718 211.82 206.41C211.803 206.102 211.702 205.805 211.529 205.55L203.183 193.278C203.027 193.049 202.818 192.862 202.573 192.733C202.329 192.603 202.056 192.536 201.78 192.536C201.503 192.536 201.231 192.603 200.986 192.733C200.742 192.862 200.532 193.049 200.377 193.278L192.033 205.55C191.86 205.805 191.759 206.102 191.742 206.41C191.725 206.718 191.792 207.024 191.936 207.297C192.08 207.569 192.296 207.798 192.56 207.957C192.824 208.116 193.126 208.2 193.434 208.201Z" fill="white"/>
<path d="M196.972 185.772C196.972 186.405 196.784 187.025 196.432 187.552C196.08 188.079 195.579 188.489 194.994 188.732C194.408 188.974 193.764 189.038 193.143 188.914C192.521 188.791 191.95 188.485 191.502 188.037C191.054 187.589 190.749 187.018 190.625 186.397C190.501 185.775 190.565 185.131 190.807 184.545C191.05 183.96 191.461 183.459 191.987 183.107C192.514 182.755 193.134 182.567 193.768 182.567C194.617 182.567 195.432 182.905 196.033 183.506C196.634 184.107 196.972 184.922 196.972 185.772Z" fill="white"/>
<path opacity="0.6" d="M222.952 247.705H164.629C163.785 247.705 163.101 248.39 163.101 249.234V307.096C163.101 307.94 163.785 308.625 164.629 308.625H222.952C223.797 308.625 224.481 307.94 224.481 307.096V249.234C224.481 248.39 223.797 247.705 222.952 247.705Z" fill="#5681BF"/>
<path d="M219.741 308.628C220.998 308.628 222.203 308.128 223.092 307.24C223.981 306.351 224.481 305.146 224.482 303.889V252.441C224.483 251.522 224.217 250.623 223.717 249.853C223.216 249.083 222.503 248.475 221.663 248.104C200.296 281.289 176.97 296.844 163.109 303.699V303.878C163.11 305.135 163.61 306.341 164.499 307.229C165.388 308.118 166.594 308.617 167.851 308.617L219.741 308.628Z" fill="#B5CAE8"/>
<path d="M226.637 313.423H160.938C160.233 313.422 159.557 313.142 159.058 312.644C158.559 312.145 158.278 311.469 158.276 310.764V245.569C158.278 244.864 158.559 244.188 159.058 243.689C159.557 243.191 160.233 242.91 160.938 242.91H226.637C227.343 242.91 228.019 243.191 228.518 243.689C229.017 244.188 229.298 244.864 229.299 245.569V310.764C229.298 311.469 229.017 312.145 228.518 312.644C228.019 313.142 227.343 313.422 226.637 313.423ZM160.93 245.016C160.786 245.016 160.649 245.073 160.547 245.175C160.445 245.276 160.388 245.414 160.388 245.558V310.753C160.388 310.897 160.445 311.035 160.547 311.136C160.649 311.238 160.786 311.295 160.93 311.295H226.637C226.781 311.295 226.919 311.238 227.021 311.136C227.122 311.035 227.18 310.897 227.18 310.753V245.558C227.18 245.414 227.122 245.276 227.021 245.175C226.919 245.073 226.781 245.016 226.637 245.016H160.93Z" fill="#5681BF"/>
<path d="M177.029 290.983H193.722C194.031 290.983 194.333 290.898 194.597 290.739C194.861 290.58 195.077 290.352 195.221 290.079C195.365 289.807 195.432 289.5 195.415 289.192C195.398 288.884 195.297 288.587 195.124 288.332L186.78 276.06C186.624 275.831 186.415 275.644 186.171 275.515C185.926 275.385 185.654 275.318 185.377 275.318C185.1 275.318 184.828 275.385 184.584 275.515C184.339 275.644 184.13 275.831 183.974 276.06L175.628 288.332C175.454 288.587 175.354 288.884 175.337 289.192C175.32 289.5 175.387 289.807 175.531 290.079C175.675 290.352 175.89 290.58 176.154 290.739C176.418 290.898 176.721 290.983 177.029 290.983Z" fill="white"/>
<path d="M192.68 290.983H209.374C209.682 290.983 209.984 290.898 210.248 290.739C210.512 290.58 210.728 290.352 210.872 290.079C211.016 289.807 211.083 289.5 211.066 289.192C211.049 288.884 210.948 288.587 210.775 288.332L202.431 276.06C202.276 275.831 202.066 275.644 201.822 275.515C201.577 275.385 201.305 275.318 201.028 275.318C200.752 275.318 200.479 275.385 200.235 275.515C199.99 275.644 199.781 275.831 199.626 276.06L191.279 288.332C191.106 288.587 191.005 288.884 190.988 289.192C190.971 289.5 191.038 289.807 191.182 290.079C191.326 290.352 191.542 290.58 191.806 290.739C192.07 290.898 192.372 290.983 192.68 290.983Z" fill="white"/>
<path d="M196.219 268.554C196.219 269.187 196.031 269.807 195.679 270.334C195.327 270.861 194.826 271.272 194.241 271.514C193.655 271.757 193.011 271.82 192.39 271.696C191.768 271.573 191.197 271.268 190.749 270.819C190.301 270.371 189.996 269.8 189.872 269.179C189.748 268.557 189.812 267.913 190.054 267.328C190.297 266.742 190.708 266.242 191.235 265.89C191.761 265.538 192.381 265.35 193.015 265.35C193.864 265.35 194.679 265.687 195.28 266.288C195.881 266.889 196.219 267.704 196.219 268.554Z" fill="white"/>
<path d="M237.13 221.315L224.579 233.837C224.478 233.936 224.352 234.007 224.214 234.043C224.076 234.078 223.931 234.077 223.794 234.039C223.657 234.001 223.532 233.928 223.432 233.827C223.332 233.726 223.26 233.6 223.224 233.462L219.079 216.748C219.045 216.614 219.047 216.473 219.083 216.34C219.12 216.207 219.191 216.085 219.289 215.988C219.387 215.89 219.508 215.819 219.642 215.783C219.775 215.747 219.916 215.746 220.05 215.78L236.759 219.963C236.896 219.999 237.021 220.071 237.121 220.171C237.222 220.271 237.294 220.396 237.332 220.533C237.369 220.669 237.371 220.813 237.335 220.951C237.3 221.088 237.229 221.214 237.13 221.315Z" fill="#3D5891"/>
<path d="M236.65 235.96L239.255 233.363C239.355 233.263 239.355 233.102 239.256 233.002L228.892 222.61C228.793 222.51 228.632 222.51 228.532 222.609L225.927 225.207C225.828 225.306 225.827 225.468 225.927 225.567L236.29 235.96C236.389 236.059 236.551 236.059 236.65 235.96Z" fill="#3D5891"/>
<path d="M400.009 201.453H247.629C247.392 201.454 247.158 201.408 246.939 201.317C246.721 201.227 246.522 201.094 246.354 200.927C246.187 200.76 246.054 200.561 245.963 200.343C245.873 200.124 245.826 199.89 245.826 199.653C245.826 199.417 245.873 199.183 245.963 198.964C246.054 198.745 246.187 198.547 246.354 198.38C246.522 198.213 246.721 198.08 246.939 197.99C247.158 197.899 247.392 197.853 247.629 197.854H400.009C400.245 197.853 400.479 197.899 400.698 197.99C400.917 198.08 401.116 198.213 401.283 198.38C401.451 198.547 401.583 198.745 401.674 198.964C401.765 199.183 401.811 199.417 401.811 199.653C401.811 199.89 401.765 200.124 401.674 200.343C401.583 200.561 401.451 200.76 401.283 200.927C401.116 201.094 400.917 201.227 400.698 201.317C400.479 201.408 400.245 201.454 400.009 201.453Z" fill="#D1DBED"/>
<path d="M323.683 210.667H247.629C247.392 210.668 247.158 210.621 246.939 210.531C246.721 210.441 246.522 210.308 246.354 210.141C246.187 209.974 246.054 209.775 245.963 209.557C245.873 209.338 245.826 209.104 245.826 208.867C245.826 208.631 245.873 208.396 245.963 208.178C246.054 207.959 246.187 207.761 246.354 207.594C246.522 207.426 246.721 207.294 246.939 207.204C247.158 207.113 247.392 207.067 247.629 207.067H323.683C323.92 207.067 324.154 207.113 324.373 207.204C324.592 207.294 324.79 207.426 324.958 207.594C325.125 207.761 325.258 207.959 325.349 208.178C325.439 208.396 325.486 208.631 325.486 208.867C325.486 209.104 325.439 209.338 325.349 209.557C325.258 209.775 325.125 209.974 324.958 210.141C324.79 210.308 324.592 210.441 324.373 210.531C324.154 210.621 323.92 210.668 323.683 210.667Z" fill="#D1DBED"/>
<path d="M400.01 210.667H332.86C332.624 210.668 332.389 210.621 332.171 210.531C331.952 210.441 331.753 210.308 331.586 210.141C331.418 209.974 331.286 209.775 331.195 209.557C331.104 209.338 331.058 209.104 331.058 208.867C331.058 208.631 331.104 208.396 331.195 208.178C331.286 207.959 331.418 207.761 331.586 207.594C331.753 207.426 331.952 207.294 332.171 207.204C332.389 207.113 332.624 207.067 332.86 207.067H400.01C400.246 207.067 400.481 207.113 400.699 207.204C400.918 207.294 401.117 207.426 401.284 207.594C401.452 207.761 401.584 207.959 401.675 208.178C401.766 208.396 401.812 208.631 401.812 208.867C401.812 209.104 401.766 209.338 401.675 209.557C401.584 209.775 401.452 209.974 401.284 210.141C401.117 210.308 400.918 210.441 400.699 210.531C400.481 210.621 400.246 210.668 400.01 210.667Z" fill="#D1DBED"/>
<path d="M277.564 219.879H247.629C247.151 219.879 246.692 219.689 246.354 219.351C246.016 219.012 245.826 218.554 245.826 218.076C245.827 217.598 246.017 217.14 246.355 216.803C246.693 216.465 247.151 216.276 247.629 216.276H277.564C277.801 216.276 278.035 216.322 278.254 216.412C278.473 216.502 278.671 216.635 278.839 216.802C279.006 216.969 279.139 217.168 279.23 217.386C279.32 217.605 279.367 217.839 279.367 218.076C279.367 218.554 279.177 219.012 278.839 219.351C278.501 219.689 278.042 219.879 277.564 219.879Z" fill="#D1DBED"/>
<path d="M344.313 219.879H286.421C286.184 219.879 285.95 219.832 285.731 219.741C285.512 219.651 285.314 219.518 285.146 219.351C284.979 219.183 284.846 218.984 284.755 218.766C284.665 218.547 284.618 218.313 284.618 218.076C284.619 217.598 284.809 217.14 285.147 216.803C285.485 216.465 285.943 216.276 286.421 216.276H344.313C344.79 216.276 345.249 216.465 345.587 216.803C345.925 217.14 346.115 217.598 346.116 218.076C346.116 218.554 345.926 219.012 345.588 219.351C345.249 219.689 344.791 219.879 344.313 219.879Z" fill="#D1DBED"/>
<path d="M370.477 172.076H250.22C249.643 172.077 249.072 171.963 248.539 171.743C248.006 171.522 247.521 171.199 247.113 170.791C246.705 170.383 246.382 169.899 246.161 169.366C245.94 168.833 245.826 168.262 245.826 167.685C245.827 166.52 246.29 165.403 247.114 164.58C247.938 163.756 249.055 163.293 250.22 163.293H370.477C371.054 163.293 371.626 163.406 372.159 163.627C372.692 163.847 373.177 164.171 373.585 164.579C373.993 164.986 374.317 165.471 374.538 166.004C374.76 166.537 374.874 167.108 374.874 167.685C374.874 168.262 374.76 168.833 374.538 169.366C374.317 169.899 373.993 170.384 373.585 170.791C373.177 171.199 372.692 171.522 372.159 171.743C371.626 171.963 371.054 172.077 370.477 172.076Z" fill="#B5CAE8"/>
<path d="M303.048 186.197H250.22C249.643 186.197 249.072 186.084 248.539 185.864C248.006 185.643 247.521 185.32 247.113 184.912C246.705 184.504 246.382 184.02 246.161 183.487C245.94 182.954 245.826 182.382 245.826 181.806C245.827 180.641 246.29 179.524 247.114 178.7C247.938 177.877 249.055 177.414 250.22 177.414H303.048C303.626 177.414 304.197 177.527 304.73 177.748C305.264 177.968 305.748 178.291 306.157 178.699C306.565 179.107 306.889 179.591 307.11 180.124C307.331 180.657 307.445 181.228 307.445 181.806C307.445 182.383 307.331 182.954 307.11 183.487C306.889 184.02 306.565 184.504 306.157 184.912C305.748 185.32 305.264 185.643 304.73 185.864C304.197 186.084 303.626 186.197 303.048 186.197Z" fill="#B5CAE8"/>
<path d="M329.133 250.917H251.148C250.571 250.918 250 250.804 249.467 250.584C248.934 250.363 248.449 250.04 248.041 249.632C247.633 249.224 247.309 248.74 247.088 248.207C246.868 247.674 246.754 247.103 246.754 246.526C246.755 245.361 247.218 244.244 248.042 243.42C248.866 242.597 249.983 242.134 251.148 242.134H329.133C330.298 242.134 331.415 242.597 332.239 243.42C333.063 244.244 333.526 245.361 333.527 246.526C333.527 247.103 333.413 247.674 333.192 248.207C332.971 248.74 332.648 249.224 332.24 249.632C331.831 250.04 331.347 250.363 330.814 250.584C330.281 250.804 329.71 250.918 329.133 250.917Z" fill="#B5CAE8"/>
<path d="M400.513 264.67H248.131C247.894 264.67 247.66 264.624 247.441 264.533C247.222 264.443 247.024 264.31 246.856 264.143C246.689 263.976 246.556 263.778 246.465 263.559C246.375 263.34 246.328 263.106 246.328 262.87C246.328 262.391 246.518 261.933 246.856 261.595C247.194 261.257 247.653 261.067 248.131 261.067H400.513C400.991 261.067 401.45 261.257 401.788 261.595C402.126 261.933 402.316 262.391 402.316 262.87C402.316 263.106 402.269 263.34 402.179 263.559C402.088 263.778 401.955 263.976 401.788 264.143C401.62 264.31 401.422 264.443 401.203 264.533C400.984 264.624 400.75 264.67 400.513 264.67Z" fill="#D1DBED"/>
<path d="M400.513 292.651H248.131C247.894 292.651 247.66 292.605 247.441 292.514C247.222 292.424 247.024 292.291 246.856 292.124C246.689 291.957 246.556 291.759 246.465 291.54C246.375 291.321 246.328 291.087 246.328 290.851C246.328 290.372 246.518 289.914 246.856 289.576C247.194 289.238 247.653 289.048 248.131 289.048H400.513C400.991 289.048 401.45 289.238 401.788 289.576C402.126 289.914 402.316 290.372 402.316 290.851C402.316 291.087 402.269 291.321 402.179 291.54C402.088 291.759 401.955 291.957 401.788 292.124C401.62 292.291 401.422 292.424 401.203 292.514C400.984 292.605 400.75 292.651 400.513 292.651Z" fill="#D1DBED"/>
<path d="M399.759 301.921H247.377C247.14 301.922 246.906 301.876 246.687 301.785C246.469 301.695 246.27 301.562 246.102 301.395C245.935 301.228 245.802 301.03 245.711 300.811C245.621 300.592 245.574 300.358 245.574 300.122C245.574 299.885 245.621 299.65 245.711 299.432C245.802 299.213 245.935 299.014 246.102 298.847C246.27 298.679 246.468 298.547 246.687 298.456C246.906 298.365 247.14 298.319 247.377 298.319H399.759C400.237 298.319 400.696 298.509 401.034 298.847C401.372 299.185 401.562 299.643 401.562 300.122C401.562 300.358 401.515 300.592 401.425 300.811C401.334 301.03 401.201 301.228 401.034 301.395C400.866 301.562 400.668 301.695 400.449 301.785C400.23 301.876 399.996 301.922 399.759 301.921Z" fill="#D1DBED"/>
<path d="M324.18 273.883H248.131C247.894 273.884 247.66 273.837 247.441 273.747C247.222 273.657 247.024 273.524 246.856 273.357C246.689 273.19 246.556 272.991 246.465 272.773C246.375 272.554 246.328 272.32 246.328 272.083C246.328 271.605 246.518 271.147 246.856 270.809C247.194 270.471 247.653 270.281 248.131 270.281H324.18C324.658 270.281 325.116 270.471 325.454 270.809C325.792 271.147 325.982 271.605 325.982 272.083C325.982 272.32 325.936 272.554 325.845 272.773C325.755 272.991 325.622 273.19 325.454 273.357C325.287 273.524 325.088 273.657 324.869 273.747C324.651 273.837 324.416 273.884 324.18 273.883Z" fill="#D1DBED"/>
<path d="M400.513 273.883H333.361C333.125 273.884 332.89 273.837 332.672 273.747C332.453 273.657 332.254 273.524 332.087 273.357C331.919 273.19 331.786 272.991 331.696 272.773C331.605 272.554 331.559 272.32 331.559 272.083C331.559 271.605 331.749 271.147 332.087 270.809C332.425 270.471 332.883 270.281 333.361 270.281H400.513C400.991 270.281 401.45 270.471 401.788 270.809C402.126 271.147 402.316 271.605 402.316 272.083C402.316 272.32 402.269 272.554 402.179 272.773C402.088 272.991 401.955 273.19 401.788 273.357C401.62 273.524 401.422 273.657 401.203 273.747C400.984 273.837 400.75 273.884 400.513 273.883Z" fill="#D1DBED"/>
<path d="M278.069 279.484H248.128C247.134 279.484 246.328 280.29 246.328 281.284V281.295C246.328 282.289 247.134 283.095 248.128 283.095H278.069C279.063 283.095 279.869 282.289 279.869 281.295V281.284C279.869 280.29 279.063 279.484 278.069 279.484Z" fill="#D1DBED"/>
<path d="M344.827 283.092H286.922C286.685 283.093 286.451 283.046 286.232 282.956C286.013 282.866 285.815 282.733 285.647 282.566C285.48 282.399 285.347 282.2 285.256 281.982C285.166 281.763 285.119 281.529 285.119 281.292C285.119 281.056 285.166 280.821 285.256 280.603C285.347 280.384 285.48 280.186 285.647 280.018C285.815 279.851 286.013 279.719 286.232 279.628C286.451 279.538 286.685 279.492 286.922 279.492H344.827C345.064 279.492 345.298 279.538 345.517 279.628C345.736 279.719 345.934 279.851 346.102 280.018C346.269 280.186 346.402 280.384 346.493 280.603C346.583 280.821 346.63 281.056 346.63 281.292C346.63 281.529 346.583 281.763 346.493 281.982C346.402 282.2 346.269 282.399 346.102 282.566C345.934 282.733 345.736 282.866 345.517 282.956C345.298 283.046 345.064 283.093 344.827 283.092Z" fill="#D1DBED"/>
<path d="M277.871 311.786H247.943C247.465 311.786 247.007 311.596 246.669 311.258C246.331 310.92 246.141 310.461 246.141 309.983C246.141 309.746 246.187 309.512 246.278 309.294C246.369 309.075 246.501 308.876 246.669 308.709C246.836 308.542 247.035 308.41 247.254 308.319C247.472 308.229 247.707 308.183 247.943 308.183H277.871C278.107 308.183 278.342 308.229 278.56 308.319C278.779 308.41 278.978 308.542 279.145 308.709C279.313 308.876 279.445 309.075 279.536 309.294C279.627 309.512 279.673 309.746 279.673 309.983C279.673 310.461 279.483 310.92 279.145 311.258C278.807 311.596 278.349 311.786 277.871 311.786Z" fill="#D1DBED"/>
<path d="M344.627 311.786H286.735C286.257 311.786 285.799 311.596 285.461 311.258C285.123 310.92 284.933 310.461 284.933 309.983C284.933 309.746 284.979 309.512 285.07 309.294C285.161 309.075 285.293 308.876 285.461 308.709C285.628 308.542 285.827 308.41 286.046 308.319C286.264 308.229 286.499 308.183 286.735 308.183H344.627C344.864 308.183 345.098 308.229 345.317 308.319C345.536 308.41 345.734 308.542 345.902 308.709C346.069 308.876 346.202 309.075 346.293 309.294C346.383 309.512 346.43 309.746 346.43 309.983C346.43 310.461 346.24 310.92 345.902 311.258C345.564 311.596 345.105 311.786 344.627 311.786Z" fill="#878787"/>
<path d="M499.257 195.457H418.729V312.922H499.257V195.457Z" fill="#D1DBED"/>
<path d="M451.945 262.848C451.134 262.848 450.357 262.526 449.783 261.952C449.21 261.379 448.888 260.601 448.888 259.79V221.332C448.911 220.536 449.244 219.781 449.815 219.227C450.386 218.672 451.151 218.362 451.947 218.362C452.743 218.362 453.507 218.672 454.078 219.227C454.65 219.781 454.982 220.536 455.006 221.332V259.79C455.006 260.192 454.927 260.59 454.773 260.961C454.619 261.332 454.394 261.669 454.109 261.953C453.825 262.237 453.488 262.462 453.116 262.616C452.745 262.769 452.347 262.848 451.945 262.848Z" fill="#B5CAE8"/>
<path d="M451.945 282.078C451.134 282.078 450.357 281.756 449.783 281.183C449.21 280.609 448.888 279.831 448.888 279.02V259.774C448.911 258.978 449.244 258.223 449.815 257.669C450.386 257.114 451.151 256.804 451.947 256.804C452.743 256.804 453.507 257.114 454.078 257.669C454.65 258.223 454.982 258.978 455.006 259.774V279.02C455.006 279.422 454.927 279.82 454.773 280.191C454.619 280.562 454.394 280.899 454.109 281.183C453.825 281.467 453.488 281.693 453.116 281.846C452.745 282 452.347 282.078 451.945 282.078Z" fill="white"/>
<path d="M467.898 251.53C467.495 251.531 467.097 251.452 466.724 251.298C466.352 251.144 466.014 250.919 465.73 250.634C465.445 250.349 465.219 250.011 465.066 249.638C464.912 249.266 464.834 248.867 464.835 248.464V237.472C464.835 236.66 465.157 235.882 465.731 235.308C466.305 234.734 467.084 234.412 467.895 234.412C468.707 234.412 469.486 234.734 470.06 235.308C470.634 235.882 470.956 236.66 470.956 237.472V248.464C470.957 248.867 470.878 249.265 470.725 249.637C470.572 250.008 470.346 250.346 470.062 250.631C469.778 250.916 469.441 251.142 469.07 251.296C468.698 251.45 468.3 251.53 467.898 251.53Z" fill="#5681BF"/>
<path d="M467.898 282.078C467.497 282.079 467.099 282 466.727 281.846C466.356 281.693 466.019 281.468 465.734 281.184C465.45 280.9 465.225 280.562 465.071 280.191C464.917 279.82 464.838 279.422 464.838 279.02V248.464C464.838 247.653 465.16 246.874 465.734 246.3C466.308 245.726 467.087 245.404 467.898 245.404C468.71 245.404 469.489 245.726 470.062 246.3C470.636 246.874 470.959 247.653 470.959 248.464V279.02C470.958 279.832 470.635 280.609 470.062 281.183C469.488 281.756 468.71 282.078 467.898 282.078Z" fill="white"/>
<path d="M436.32 251.53C435.509 251.53 434.731 251.208 434.157 250.635C433.583 250.061 433.26 249.284 433.26 248.472V229.19C433.26 228.379 433.582 227.6 434.156 227.026C434.73 226.452 435.509 226.13 436.32 226.13C437.132 226.13 437.91 226.452 438.484 227.026C439.058 227.6 439.381 228.379 439.381 229.19V248.464C439.382 248.867 439.303 249.265 439.15 249.638C438.997 250.01 438.771 250.348 438.487 250.633C438.203 250.917 437.865 251.143 437.493 251.297C437.121 251.451 436.723 251.53 436.32 251.53Z" fill="#99B1DA"/>
<path d="M436.32 282.078C435.509 282.078 434.731 281.756 434.157 281.183C433.583 280.609 433.26 279.832 433.26 279.02V248.464C433.26 247.653 433.582 246.874 434.156 246.3C434.73 245.726 435.509 245.404 436.32 245.404C437.132 245.404 437.91 245.726 438.484 246.3C439.058 246.874 439.381 247.653 439.381 248.464V279.02C439.381 279.422 439.302 279.82 439.148 280.191C438.994 280.562 438.768 280.9 438.484 281.184C438.2 281.468 437.863 281.693 437.491 281.846C437.12 282 436.722 282.079 436.32 282.078Z" fill="white"/>
<path d="M439.771 289.294H427.765V295.757H439.771V289.294Z" fill="#B5CAE8"/>
<path d="M439.771 299.733H427.765V306.196H439.771V299.733Z" fill="#5681BF"/>
<path d="M474.025 289.294H462.019V295.757H474.025V289.294Z" fill="#99B1DA"/>
<path d="M474.025 299.733H462.019V306.196H474.025V299.733Z" fill="#3D5891"/>
<path d="M457.033 290.718H442.178V292.87H457.033V290.718Z" fill="white"/>
<path d="M457.033 302.309H442.178V304.461H457.033V302.309Z" fill="#E1E1E1"/>
<path d="M490.929 290.718H476.074V292.87H490.929V290.718Z" fill="white"/>
<path d="M490.929 302.309H476.074V304.461H490.929V302.309Z" fill="white"/>
<path d="M65.282 223.216H142.792V221.386H65.282V223.216Z" fill="#D1DBED"/>
<path d="M65.282 213.948H142.792V212.118H65.282V213.948Z" fill="#D0D0D0"/>
<path d="M65.282 204.677H142.792V202.847H65.282V204.677Z" fill="#D0D0D0"/>
<path d="M31.946 227.201H60.3037V198.867H31.946L31.946 227.201Z" fill="#D0D0D0"/>
<path d="M65.2808 180.529H100.857V178.699H65.2808V180.529Z" fill="#D1DBED"/>
<path d="M65.282 171.255H142.792V169.425H65.282V171.255Z" fill="#D1DBED"/>
<path d="M65.282 161.987H142.792V160.157H65.282V161.987Z" fill="#D1DBED"/>
<path d="M31.946 184.508H60.3037V156.175H31.946L31.946 184.508Z" fill="#B5CAE8"/>
<path d="M65.282 136.939H142.792V135.109H65.282V136.939Z" fill="#D1DBED"/>
<path d="M65.282 127.666L142.792 127.666V125.836L65.282 125.836V127.666Z" fill="#D1DBED"/>
<path d="M65.282 118.397L142.792 118.397V116.567L65.282 116.567V118.397Z" fill="#D1DBED"/>
<path d="M31.946 140.918H60.3037V112.585H31.946L31.946 140.918Z" fill="#B5CAE8"/>
<path d="M64.905 92.5361L142.415 92.5361V90.7063L64.905 90.7063V92.5361Z" fill="#D1DBED"/>
<path d="M64.905 83.2681L142.415 83.2681V81.4383L64.905 81.4383V83.2681Z" fill="#D1DBED"/>
<path d="M64.905 73.9941L142.415 73.9941V72.1643L64.905 72.1643V73.9941Z" fill="#D1DBED"/>
<path d="M31.57 96.5181H59.9277V68.1848H31.57L31.57 96.5181Z" fill="#B5CAE8"/>
<path d="M64.6148 306.733H100.191V304.903H64.6148V306.733Z" fill="#D0D0D0"/>
<path d="M64.6169 297.465H142.127V295.635H64.6169V297.465Z" fill="#D0D0D0"/>
<path d="M64.6169 288.191H142.127V286.361H64.6169V288.191Z" fill="#D0D0D0"/>
<path d="M31.28 310.715H59.6377V282.382H31.28L31.28 310.715Z" fill="#B5CAE8"/>
<path d="M64.6169 263.143H142.127V261.313H64.6169V263.143Z" fill="#D1DBED"/>
<path d="M64.6169 253.875H142.127V252.045H64.6169V253.875Z" fill="#D1DBED"/>
<path d="M64.6169 244.602H142.127V242.772H64.6169V244.602Z" fill="#D1DBED"/>
<path d="M31.28 267.125H59.6377V238.792H31.28L31.28 267.125Z" fill="#B5CAE8"/>
<path opacity="0.3" d="M283.314 324.158V395.146C283.316 396.848 283.993 398.48 285.197 399.683C286.402 400.885 288.034 401.561 289.736 401.56H478.707C480.409 401.561 482.041 400.885 483.245 399.683C484.45 398.48 485.127 396.848 485.128 395.146V330.572C485.127 328.87 484.45 327.238 483.245 326.035C482.041 324.833 480.409 324.157 478.707 324.158H283.314Z" fill="#848484"/>
<path d="M475.668 301.13H281.849C280.799 301.13 279.948 301.981 279.948 303.03V392.248C279.948 393.298 280.799 394.148 281.849 394.148H475.668C476.718 394.148 477.569 393.298 477.569 392.248V303.03C477.569 301.981 476.718 301.13 475.668 301.13Z" fill="#5681BF"/>
<path d="M318.487 309.352H295.082C294.289 309.352 293.646 309.995 293.646 310.788V326.674C293.646 327.467 294.289 328.11 295.082 328.11H318.487C319.281 328.11 319.924 327.467 319.924 326.674V310.788C319.924 309.995 319.281 309.352 318.487 309.352Z" fill="#2F4171"/>
<path d="M353.836 309.352H330.431C329.637 309.352 328.994 309.995 328.994 310.788V326.674C328.994 327.467 329.637 328.11 330.431 328.11H353.836C354.629 328.11 355.273 327.467 355.273 326.674V310.788C355.273 309.995 354.629 309.352 353.836 309.352Z" fill="#3D5891"/>
<path d="M390.459 309.352H367.054C366.26 309.352 365.617 309.995 365.617 310.788V326.674C365.617 327.467 366.26 328.11 367.054 328.11H390.459C391.253 328.11 391.896 327.467 391.896 326.674V310.788C391.896 309.995 391.253 309.352 390.459 309.352Z" fill="#889DBC"/>
<path d="M427.082 309.352H403.677C402.883 309.352 402.24 309.995 402.24 310.788V326.674C402.24 327.467 402.883 328.11 403.677 328.11H427.082C427.875 328.11 428.519 327.467 428.519 326.674V310.788C428.519 309.995 427.875 309.352 427.082 309.352Z" fill="#99B1DA"/>
<path d="M463.708 309.352H440.303C439.509 309.352 438.866 309.995 438.866 310.788V326.674C438.866 327.467 439.509 328.11 440.303 328.11H463.708C464.502 328.11 465.145 327.467 465.145 326.674V310.788C465.145 309.995 464.502 309.352 463.708 309.352Z" fill="#B5CAE8"/>
<path d="M317.85 338.257H294.444C293.651 338.257 293.008 338.9 293.008 339.694V355.579C293.008 356.372 293.651 357.016 294.444 357.016H317.85C318.643 357.016 319.286 356.372 319.286 355.579V339.694C319.286 338.9 318.643 338.257 317.85 338.257Z" fill="#243354"/>
<path d="M353.198 338.257H329.793C329 338.257 328.356 338.9 328.356 339.694V355.579C328.356 356.372 329 357.016 329.793 357.016H353.198C353.992 357.016 354.635 356.372 354.635 355.579V339.694C354.635 338.9 353.992 338.257 353.198 338.257Z" fill="#2F4171"/>
<path d="M389.821 338.257H366.416C365.623 338.257 364.979 338.9 364.979 339.694V355.579C364.979 356.372 365.623 357.016 366.416 357.016H389.821C390.615 357.016 391.258 356.372 391.258 355.579V339.694C391.258 338.9 390.615 338.257 389.821 338.257Z" fill="#3D5891"/>
<path d="M426.444 338.257H403.039C402.246 338.257 401.603 338.9 401.603 339.694V355.579C401.603 356.372 402.246 357.016 403.039 357.016H426.444C427.238 357.016 427.881 356.372 427.881 355.579V339.694C427.881 338.9 427.238 338.257 426.444 338.257Z" fill="#99B1DA"/>
<path d="M463.07 338.257H439.665C438.872 338.257 438.229 338.9 438.229 339.694V355.579C438.229 356.372 438.872 357.016 439.665 357.016H463.07C463.864 357.016 464.507 356.372 464.507 355.579V339.694C464.507 338.9 463.864 338.257 463.07 338.257Z" fill="#99B1DA"/>
<path d="M317.213 367.165H293.808C293.014 367.165 292.371 367.808 292.371 368.602V384.487C292.371 385.281 293.014 385.924 293.808 385.924H317.213C318.006 385.924 318.65 385.281 318.65 384.487V368.602C318.65 367.808 318.006 367.165 317.213 367.165Z" fill="#4B73A3"/>
<path d="M352.562 367.165H329.156C328.363 367.165 327.72 367.808 327.72 368.602V384.487C327.72 385.281 328.363 385.924 329.156 385.924H352.562C353.355 385.924 353.998 385.281 353.998 384.487V368.602C353.998 367.808 353.355 367.165 352.562 367.165Z" fill="#99B1DA"/>
<path d="M389.185 367.165H365.78C364.986 367.165 364.343 367.808 364.343 368.602V384.487C364.343 385.281 364.986 385.924 365.78 385.924H389.185C389.978 385.924 390.621 385.281 390.621 384.487V368.602C390.621 367.808 389.978 367.165 389.185 367.165Z" fill="#B5CAE8"/>
<path d="M425.81 367.165H402.404C401.611 367.165 400.968 367.808 400.968 368.602V384.487C400.968 385.281 401.611 385.924 402.404 385.924H425.81C426.603 385.924 427.246 385.281 427.246 384.487V368.602C427.246 367.808 426.603 367.165 425.81 367.165Z" fill="#D1DBED"/>
<path d="M462.434 367.165H439.029C438.235 367.165 437.592 367.808 437.592 368.602V384.487C437.592 385.281 438.235 385.924 439.029 385.924H462.434C463.227 385.924 463.87 385.281 463.87 384.487V368.602C463.87 367.808 463.227 367.165 462.434 367.165Z" fill="white"/>
</svg>
