<svg width="688" height="432" viewBox="0 0 688 432" fill="none" xmlns="http://www.w3.org/2000/svg">
<circle cx="150.548" cy="280.997" r="150.548" fill="#EAECFD"/>
<circle cx="373.167" cy="146.998" r="140.176" fill="#E2F2F7" stroke="white" stroke-width="12.3545"/>
<circle cx="570.161" cy="254.304" r="112.811" fill="#E2EEFD" stroke="white" stroke-width="9.94264"/>
<path d="M319.108 135.081V127.737L335.925 103.682H346.09V127.205H350.454V135.081H346.09V142H336.989V135.081H319.108ZM337.628 113.687L328.687 127.205H337.628V113.687ZM353.528 134.709C354.734 133.751 355.284 133.308 355.177 133.378C358.654 130.505 361.386 128.145 363.373 126.3C365.396 124.455 367.099 122.522 368.482 120.499C369.866 118.477 370.558 116.508 370.558 114.592C370.558 113.137 370.221 112.002 369.547 111.186C368.873 110.37 367.861 109.962 366.513 109.962C365.165 109.962 364.101 110.476 363.32 111.505C362.575 112.499 362.202 113.918 362.202 115.763H353.421C353.492 112.747 354.131 110.228 355.337 108.206C356.579 106.183 358.193 104.693 360.18 103.735C362.202 102.777 364.438 102.298 366.886 102.298C371.108 102.298 374.283 103.381 376.412 105.545C378.576 107.709 379.658 110.53 379.658 114.007C379.658 117.803 378.363 121.333 375.773 124.597C373.183 127.826 369.884 130.984 365.875 134.07H380.244V141.468H353.528V134.709ZM382.441 112.942C382.441 110.068 383.257 107.851 384.889 106.29C386.557 104.729 388.703 103.948 391.329 103.948C393.954 103.948 396.083 104.729 397.715 106.29C399.347 107.851 400.163 110.068 400.163 112.942C400.163 115.816 399.347 118.034 397.715 119.595C396.083 121.156 393.954 121.936 391.329 121.936C388.703 121.936 386.557 121.156 384.889 119.595C383.257 118.034 382.441 115.816 382.441 112.942ZM418.577 104.534L398.088 142H389.306L409.796 104.534H418.577ZM391.276 109.27C389.572 109.27 388.721 110.494 388.721 112.942C388.721 115.355 389.572 116.561 391.276 116.561C392.092 116.561 392.73 116.26 393.191 115.656C393.653 115.053 393.883 114.149 393.883 112.942C393.883 110.494 393.014 109.27 391.276 109.27ZM407.773 133.591C407.773 130.718 408.59 128.5 410.222 126.939C411.854 125.378 413.982 124.597 416.608 124.597C419.233 124.597 421.362 125.378 422.994 126.939C424.626 128.5 425.442 130.718 425.442 133.591C425.442 136.465 424.626 138.683 422.994 140.244C421.362 141.805 419.233 142.585 416.608 142.585C413.982 142.585 411.854 141.805 410.222 140.244C408.59 138.683 407.773 136.465 407.773 133.591ZM416.555 129.919C415.739 129.919 415.1 130.221 414.639 130.824C414.213 131.427 414 132.35 414 133.591C414 136.004 414.852 137.21 416.555 137.21C417.371 137.21 418.009 136.909 418.471 136.306C418.932 135.702 419.162 134.798 419.162 133.591C419.162 132.385 418.932 131.48 418.471 130.877C418.009 130.239 417.371 129.919 416.555 129.919Z" fill="#508DAA"/>
<path d="M338.645 181H335.179L324.748 165.217V181H321.281V159.834H324.748L335.179 175.587V159.834H338.645V181ZM357.947 172.211C357.947 172.84 357.907 173.407 357.826 173.914H345.023C345.124 175.252 345.621 176.327 346.513 177.138C347.405 177.949 348.5 178.354 349.797 178.354C351.663 178.354 352.98 177.574 353.751 176.013H357.491C356.984 177.553 356.062 178.821 354.724 179.814C353.406 180.787 351.764 181.274 349.797 181.274C348.196 181.274 346.756 180.919 345.479 180.209C344.222 179.479 343.229 178.466 342.499 177.168C341.789 175.85 341.434 174.33 341.434 172.607C341.434 170.883 341.779 169.373 342.468 168.075C343.178 166.758 344.161 165.744 345.418 165.034C346.695 164.325 348.155 163.97 349.797 163.97C351.379 163.97 352.788 164.315 354.024 165.004C355.261 165.693 356.224 166.666 356.913 167.923C357.603 169.16 357.947 170.589 357.947 172.211ZM354.329 171.116C354.308 169.839 353.852 168.815 352.96 168.045C352.068 167.275 350.963 166.889 349.645 166.889C348.449 166.889 347.425 167.275 346.574 168.045C345.722 168.795 345.215 169.819 345.053 171.116H354.329ZM375.926 164.244V181H372.459V179.023C371.912 179.713 371.192 180.26 370.3 180.665C369.428 181.051 368.496 181.243 367.502 181.243C366.184 181.243 364.998 180.97 363.944 180.422C362.91 179.875 362.089 179.064 361.481 177.989C360.893 176.915 360.599 175.617 360.599 174.097V164.244H364.035V173.58C364.035 175.08 364.41 176.236 365.161 177.047C365.911 177.837 366.935 178.233 368.232 178.233C369.53 178.233 370.553 177.837 371.304 177.047C372.074 176.236 372.459 175.08 372.459 173.58V164.244H375.926ZM383.937 167.072V176.347C383.937 176.976 384.079 177.432 384.362 177.716C384.667 177.979 385.173 178.111 385.883 178.111H388.012V181H385.275C383.714 181 382.518 180.635 381.686 179.905C380.855 179.175 380.439 177.989 380.439 176.347V167.072H378.463V164.244H380.439V160.077H383.937V164.244H388.012V167.072H383.937ZM394.066 166.676C394.573 165.825 395.242 165.166 396.073 164.7C396.924 164.213 397.928 163.97 399.084 163.97V167.558H398.202C396.843 167.558 395.809 167.903 395.1 168.592C394.41 169.282 394.066 170.478 394.066 172.181V181H390.599V164.244H394.066V166.676ZM400.506 172.546C400.506 170.863 400.851 169.373 401.54 168.075C402.25 166.778 403.203 165.774 404.399 165.065C405.615 164.335 406.954 163.97 408.413 163.97C409.731 163.97 410.877 164.233 411.85 164.761C412.843 165.267 413.634 165.906 414.222 166.676V164.244H417.719V181H414.222V178.506C413.634 179.297 412.833 179.956 411.819 180.483C410.806 181.01 409.65 181.274 408.352 181.274C406.913 181.274 405.595 180.909 404.399 180.179C403.203 179.429 402.25 178.395 401.54 177.077C400.851 175.739 400.506 174.228 400.506 172.546ZM414.222 172.607C414.222 171.451 413.979 170.447 413.492 169.596C413.026 168.744 412.407 168.096 411.637 167.65C410.866 167.204 410.035 166.981 409.143 166.981C408.251 166.981 407.42 167.204 406.649 167.65C405.879 168.075 405.251 168.714 404.764 169.565C404.298 170.397 404.065 171.39 404.065 172.546C404.065 173.701 404.298 174.715 404.764 175.587C405.251 176.459 405.879 177.128 406.649 177.594C407.44 178.04 408.271 178.263 409.143 178.263C410.035 178.263 410.866 178.04 411.637 177.594C412.407 177.148 413.026 176.499 413.492 175.648C413.979 174.776 414.222 173.762 414.222 172.607ZM425.131 158.496V181H421.664V158.496H425.131Z" fill="#508DAA"/>
<path d="M548.428 241.834C548.856 244.09 550.169 245.218 552.368 245.218C553.881 245.218 554.952 244.547 555.58 243.205C556.208 241.863 556.523 239.679 556.523 236.652C555.894 237.537 555.038 238.222 553.953 238.708C552.868 239.193 551.654 239.436 550.312 239.436C548.485 239.436 546.857 239.065 545.43 238.322C544.002 237.551 542.874 236.424 542.046 234.939C541.247 233.425 540.847 231.598 540.847 229.457C540.847 227.344 541.275 225.502 542.132 223.932C543.017 222.361 544.259 221.148 545.858 220.291C547.485 219.434 549.399 219.006 551.597 219.006C555.823 219.006 558.778 220.32 560.463 222.946C562.148 225.573 562.99 229.442 562.99 234.553C562.99 238.265 562.647 241.335 561.962 243.762C561.305 246.16 560.177 247.988 558.578 249.244C557.008 250.5 554.852 251.128 552.111 251.128C549.941 251.128 548.085 250.7 546.543 249.844C545.03 248.987 543.859 247.859 543.031 246.46C542.232 245.061 541.775 243.519 541.661 241.834H548.428ZM551.983 233.654C553.182 233.654 554.138 233.297 554.852 232.583C555.566 231.841 555.923 230.841 555.923 229.585C555.923 228.215 555.552 227.158 554.809 226.416C554.067 225.673 553.068 225.302 551.811 225.302C550.555 225.302 549.556 225.688 548.813 226.459C548.099 227.201 547.742 228.229 547.742 229.542C547.742 230.77 548.099 231.769 548.813 232.54C549.556 233.283 550.612 233.654 551.983 233.654ZM565.441 227.615C565.441 225.302 566.098 223.518 567.411 222.261C568.753 221.005 570.481 220.377 572.594 220.377C574.707 220.377 576.42 221.005 577.733 222.261C579.047 223.518 579.704 225.302 579.704 227.615C579.704 229.928 579.047 231.712 577.733 232.969C576.42 234.225 574.707 234.853 572.594 234.853C570.481 234.853 568.753 234.225 567.411 232.969C566.098 231.712 565.441 229.928 565.441 227.615ZM594.523 220.848L578.033 251H570.966L587.456 220.848H594.523ZM572.551 224.66C571.18 224.66 570.495 225.645 570.495 227.615C570.495 229.557 571.18 230.527 572.551 230.527C573.208 230.527 573.722 230.285 574.093 229.799C574.464 229.314 574.65 228.586 574.65 227.615C574.65 225.645 573.95 224.66 572.551 224.66ZM585.828 244.233C585.828 241.92 586.485 240.136 587.798 238.879C589.112 237.623 590.825 236.995 592.938 236.995C595.051 236.995 596.764 237.623 598.078 238.879C599.391 240.136 600.048 241.92 600.048 244.233C600.048 246.546 599.391 248.33 598.078 249.587C596.764 250.843 595.051 251.471 592.938 251.471C590.825 251.471 589.112 250.843 587.798 249.587C586.485 248.33 585.828 246.546 585.828 244.233ZM592.895 241.278C592.238 241.278 591.724 241.52 591.353 242.006C591.011 242.491 590.839 243.234 590.839 244.233C590.839 246.175 591.525 247.145 592.895 247.145C593.552 247.145 594.066 246.903 594.437 246.417C594.808 245.932 594.994 245.204 594.994 244.233C594.994 243.262 594.808 242.534 594.437 242.049C594.066 241.535 593.552 241.278 592.895 241.278Z" fill="#4B7DCD"/>
<path d="M498.101 271.407V282.249C498.101 283.538 498.436 284.509 499.105 285.162C499.79 285.815 500.736 286.141 501.944 286.141C503.167 286.141 504.114 285.815 504.783 285.162C505.468 284.509 505.811 283.538 505.811 282.249V271.407H508.601V282.201C508.601 283.587 508.299 284.762 507.695 285.725C507.091 286.687 506.284 287.405 505.272 287.879C504.26 288.352 503.143 288.588 501.919 288.588C500.695 288.588 499.578 288.352 498.566 287.879C497.571 287.405 496.78 286.687 496.192 285.725C495.605 284.762 495.311 283.587 495.311 282.201V271.407H498.101ZM518.548 274.711C519.608 274.711 520.554 274.932 521.387 275.372C522.235 275.813 522.896 276.465 523.369 277.33C523.842 278.195 524.079 279.239 524.079 280.463V288.417H521.313V280.879C521.313 279.672 521.011 278.75 520.408 278.113C519.804 277.461 518.98 277.134 517.936 277.134C516.892 277.134 516.059 277.461 515.439 278.113C514.836 278.75 514.534 279.672 514.534 280.879V288.417H511.744V274.932H514.534V276.474C514.991 275.919 515.57 275.486 516.272 275.176C516.989 274.866 517.748 274.711 518.548 274.711ZM528.568 273.145C528.062 273.145 527.638 272.974 527.295 272.631C526.952 272.289 526.781 271.864 526.781 271.358C526.781 270.853 526.952 270.428 527.295 270.086C527.638 269.743 528.062 269.572 528.568 269.572C529.057 269.572 529.473 269.743 529.816 270.086C530.158 270.428 530.33 270.853 530.33 271.358C530.33 271.864 530.158 272.289 529.816 272.631C529.473 272.974 529.057 273.145 528.568 273.145ZM529.938 274.932V288.417H527.148V274.932H529.938ZM549.436 274.711C550.497 274.711 551.443 274.932 552.275 275.372C553.124 275.813 553.784 276.465 554.258 277.33C554.747 278.195 554.992 279.239 554.992 280.463V288.417H552.226V280.879C552.226 279.672 551.924 278.75 551.321 278.113C550.717 277.461 549.893 277.134 548.849 277.134C547.805 277.134 546.972 277.461 546.352 278.113C545.749 278.75 545.447 279.672 545.447 280.879V288.417H542.681V280.879C542.681 279.672 542.379 278.75 541.776 278.113C541.172 277.461 540.348 277.134 539.304 277.134C538.26 277.134 537.427 277.461 536.807 278.113C536.204 278.75 535.902 279.672 535.902 280.879V288.417H533.112V274.932H535.902V276.474C536.359 275.919 536.938 275.486 537.64 275.176C538.341 274.866 539.092 274.711 539.891 274.711C540.968 274.711 541.931 274.94 542.779 275.397C543.628 275.854 544.28 276.514 544.737 277.379C545.145 276.563 545.781 275.919 546.646 275.446C547.511 274.956 548.441 274.711 549.436 274.711ZM560.843 276.914C561.316 276.294 561.96 275.772 562.776 275.348C563.592 274.924 564.514 274.711 565.542 274.711C566.716 274.711 567.785 275.005 568.748 275.593C569.727 276.164 570.494 276.971 571.048 278.015C571.603 279.06 571.88 280.259 571.88 281.613C571.88 282.967 571.603 284.183 571.048 285.26C570.494 286.32 569.727 287.152 568.748 287.756C567.785 288.344 566.716 288.637 565.542 288.637C564.514 288.637 563.6 288.433 562.801 288.025C562.001 287.601 561.348 287.079 560.843 286.459V294.829H558.053V274.932H560.843V276.914ZM569.041 281.613C569.041 280.683 568.846 279.884 568.454 279.215C568.079 278.529 567.573 278.015 566.937 277.673C566.317 277.314 565.648 277.134 564.93 277.134C564.228 277.134 563.559 277.314 562.923 277.673C562.303 278.032 561.797 278.554 561.406 279.239C561.03 279.924 560.843 280.732 560.843 281.662C560.843 282.592 561.03 283.408 561.406 284.11C561.797 284.795 562.303 285.317 562.923 285.676C563.559 286.035 564.228 286.214 564.93 286.214C565.648 286.214 566.317 286.035 566.937 285.676C567.573 285.301 568.079 284.762 568.454 284.061C568.846 283.359 569.041 282.543 569.041 281.613ZM579.999 288.637C578.727 288.637 577.576 288.352 576.549 287.781C575.521 287.193 574.713 286.377 574.126 285.333C573.538 284.273 573.245 283.049 573.245 281.662C573.245 280.292 573.546 279.076 574.15 278.015C574.754 276.955 575.578 276.139 576.622 275.568C577.666 274.997 578.833 274.711 580.122 274.711C581.411 274.711 582.577 274.997 583.622 275.568C584.666 276.139 585.49 276.955 586.093 278.015C586.697 279.076 586.999 280.292 586.999 281.662C586.999 283.033 586.689 284.248 586.069 285.309C585.449 286.369 584.601 287.193 583.524 287.781C582.463 288.352 581.288 288.637 579.999 288.637ZM579.999 286.214C580.717 286.214 581.386 286.043 582.006 285.7C582.643 285.358 583.157 284.844 583.548 284.158C583.94 283.473 584.136 282.641 584.136 281.662C584.136 280.683 583.948 279.859 583.573 279.19C583.197 278.505 582.7 277.991 582.08 277.648C581.46 277.306 580.791 277.134 580.073 277.134C579.355 277.134 578.686 277.306 578.066 277.648C577.462 277.991 576.981 278.505 576.622 279.19C576.263 279.859 576.084 280.683 576.084 281.662C576.084 283.114 576.451 284.24 577.185 285.04C577.935 285.823 578.874 286.214 579.999 286.214ZM592.058 276.89C592.466 276.204 593.004 275.674 593.673 275.299C594.358 274.907 595.166 274.711 596.096 274.711V277.599H595.386C594.293 277.599 593.461 277.877 592.89 278.432C592.335 278.986 592.058 279.949 592.058 281.319V288.417H589.268V274.932H592.058V276.89ZM601.426 277.208V284.672C601.426 285.178 601.54 285.545 601.769 285.774C602.014 285.986 602.421 286.092 602.993 286.092H604.706V288.417H602.503C601.247 288.417 600.284 288.123 599.615 287.536C598.946 286.949 598.612 285.994 598.612 284.672V277.208H597.021V274.932H598.612V271.579H601.426V274.932H604.706V277.208H601.426ZM605.858 281.613C605.858 280.259 606.135 279.06 606.69 278.015C607.261 276.971 608.028 276.164 608.99 275.593C609.969 275.005 611.046 274.711 612.221 274.711C613.282 274.711 614.203 274.924 614.987 275.348C615.786 275.756 616.422 276.27 616.896 276.89V274.932H619.71V288.417H616.896V286.41C616.422 287.046 615.778 287.577 614.962 288.001C614.146 288.425 613.216 288.637 612.172 288.637C611.014 288.637 609.953 288.344 608.99 287.756C608.028 287.152 607.261 286.32 606.69 285.26C606.135 284.183 605.858 282.967 605.858 281.613ZM616.896 281.662C616.896 280.732 616.7 279.924 616.308 279.239C615.933 278.554 615.435 278.032 614.815 277.673C614.195 277.314 613.526 277.134 612.808 277.134C612.09 277.134 611.422 277.314 610.802 277.673C610.181 278.015 609.676 278.529 609.284 279.215C608.909 279.884 608.721 280.683 608.721 281.613C608.721 282.543 608.909 283.359 609.284 284.061C609.676 284.762 610.181 285.301 610.802 285.676C611.438 286.035 612.107 286.214 612.808 286.214C613.526 286.214 614.195 286.035 614.815 285.676C615.435 285.317 615.933 284.795 616.308 284.11C616.7 283.408 616.896 282.592 616.896 281.662ZM629.689 274.711C630.75 274.711 631.696 274.932 632.528 275.372C633.377 275.813 634.037 276.465 634.51 277.33C634.984 278.195 635.22 279.239 635.22 280.463V288.417H632.455V280.879C632.455 279.672 632.153 278.75 631.549 278.113C630.945 277.461 630.121 277.134 629.077 277.134C628.033 277.134 627.201 277.461 626.581 278.113C625.977 278.75 625.675 279.672 625.675 280.879V288.417H622.885V274.932H625.675V276.474C626.132 275.919 626.711 275.486 627.413 275.176C628.131 274.866 628.89 274.711 629.689 274.711ZM641.545 277.208V284.672C641.545 285.178 641.659 285.545 641.887 285.774C642.132 285.986 642.54 286.092 643.111 286.092H644.824V288.417H642.622C641.365 288.417 640.403 288.123 639.734 287.536C639.065 286.949 638.73 285.994 638.73 284.672V277.208H637.139V274.932H638.73V271.579H641.545V274.932H644.824V277.208H641.545Z" fill="#4B7DCD"/>
<path d="M79.7339 269.2V260.92L98.6939 233.8H110.154V260.32H115.074V269.2H110.154V277H99.8939V269.2H79.7339ZM100.614 245.08L90.5339 260.32H100.614V245.08ZM129.939 264.16C130.539 267.32 132.379 268.9 135.459 268.9C137.579 268.9 139.079 267.96 139.959 266.08C140.839 264.2 141.279 261.14 141.279 256.9C140.399 258.14 139.199 259.1 137.679 259.78C136.159 260.46 134.459 260.8 132.579 260.8C130.019 260.8 127.739 260.28 125.739 259.24C123.739 258.16 122.159 256.58 120.999 254.5C119.879 252.38 119.319 249.82 119.319 246.82C119.319 243.86 119.919 241.28 121.119 239.08C122.359 236.88 124.099 235.18 126.339 233.98C128.619 232.78 131.299 232.18 134.379 232.18C140.299 232.18 144.439 234.02 146.799 237.7C149.159 241.38 150.339 246.8 150.339 253.96C150.339 259.16 149.859 263.46 148.899 266.86C147.979 270.22 146.399 272.78 144.159 274.54C141.959 276.3 138.939 277.18 135.099 277.18C132.059 277.18 129.459 276.58 127.299 275.38C125.179 274.18 123.539 272.6 122.379 270.64C121.259 268.68 120.619 266.52 120.459 264.16H129.939ZM134.919 252.7C136.599 252.7 137.939 252.2 138.939 251.2C139.939 250.16 140.439 248.76 140.439 247C140.439 245.08 139.919 243.6 138.879 242.56C137.839 241.52 136.439 241 134.679 241C132.919 241 131.519 241.54 130.479 242.62C129.479 243.66 128.979 245.1 128.979 246.94C128.979 248.66 129.479 250.06 130.479 251.14C131.519 252.18 132.999 252.7 134.919 252.7ZM153.773 244.24C153.773 241 154.693 238.5 156.533 236.74C158.413 234.98 160.833 234.1 163.793 234.1C166.753 234.1 169.153 234.98 170.993 236.74C172.833 238.5 173.753 241 173.753 244.24C173.753 247.48 172.833 249.98 170.993 251.74C169.153 253.5 166.753 254.38 163.793 254.38C160.833 254.38 158.413 253.5 156.533 251.74C154.693 249.98 153.773 247.48 153.773 244.24ZM194.513 234.76L171.413 277H161.513L184.613 234.76H194.513ZM163.733 240.1C161.813 240.1 160.853 241.48 160.853 244.24C160.853 246.96 161.813 248.32 163.733 248.32C164.653 248.32 165.373 247.98 165.893 247.3C166.413 246.62 166.673 245.6 166.673 244.24C166.673 241.48 165.693 240.1 163.733 240.1ZM182.333 267.52C182.333 264.28 183.253 261.78 185.093 260.02C186.933 258.26 189.333 257.38 192.293 257.38C195.253 257.38 197.653 258.26 199.493 260.02C201.333 261.78 202.253 264.28 202.253 267.52C202.253 270.76 201.333 273.26 199.493 275.02C197.653 276.78 195.253 277.66 192.293 277.66C189.333 277.66 186.933 276.78 185.093 275.02C183.253 273.26 182.333 270.76 182.333 267.52ZM192.233 263.38C191.313 263.38 190.593 263.72 190.073 264.4C189.593 265.08 189.353 266.12 189.353 267.52C189.353 270.24 190.313 271.6 192.233 271.6C193.153 271.6 193.873 271.26 194.393 270.58C194.913 269.9 195.173 268.88 195.173 267.52C195.173 266.16 194.913 265.14 194.393 264.46C193.873 263.74 193.153 263.38 192.233 263.38Z" fill="#6664F2"/>
<path d="M54.568 297.807L46.216 320.047H41.992L33.608 297.807H37.512L44.104 316.303L50.728 297.807H54.568ZM73.1388 310.799C73.1388 311.46 73.0961 312.058 73.0108 312.591H59.5388C59.6454 313.999 60.1681 315.13 61.1068 315.983C62.0454 316.836 63.1974 317.263 64.5628 317.263C66.5254 317.263 67.9121 316.442 68.7228 314.799H72.6588C72.1254 316.42 71.1548 317.754 69.7468 318.799C68.3601 319.823 66.6321 320.335 64.5628 320.335C62.8774 320.335 61.3628 319.962 60.0188 319.215C58.6961 318.447 57.6508 317.38 56.8828 316.015C56.1361 314.628 55.7628 313.028 55.7628 311.215C55.7628 309.402 56.1254 307.812 56.8508 306.447C57.5974 305.06 58.6321 303.994 59.9548 303.247C61.2988 302.5 62.8348 302.127 64.5628 302.127C66.2268 302.127 67.7094 302.49 69.0108 303.215C70.3121 303.94 71.3254 304.964 72.0508 306.287C72.7761 307.588 73.1388 309.092 73.1388 310.799ZM69.3308 309.647C69.3094 308.303 68.8294 307.226 67.8908 306.415C66.9521 305.604 65.7894 305.199 64.4028 305.199C63.1441 305.199 62.0668 305.604 61.1708 306.415C60.2748 307.204 59.7414 308.282 59.5708 309.647H69.3308ZM79.7368 304.975C80.2701 304.079 80.9741 303.386 81.8488 302.895C82.7448 302.383 83.8008 302.127 85.0168 302.127V305.903H84.0888C82.6594 305.903 81.5714 306.266 80.8248 306.991C80.0994 307.716 79.7368 308.975 79.7368 310.767V320.047H76.0888V302.415H79.7368V304.975ZM103.602 302.415L92.786 328.335H89.01L92.594 319.759L85.65 302.415H89.714L94.674 315.855L99.826 302.415H103.602ZM115.244 300.079C114.582 300.079 114.028 299.855 113.58 299.407C113.132 298.959 112.908 298.404 112.908 297.743C112.908 297.082 113.132 296.527 113.58 296.079C114.028 295.631 114.582 295.407 115.244 295.407C115.884 295.407 116.428 295.631 116.876 296.079C117.324 296.527 117.548 297.082 117.548 297.743C117.548 298.404 117.324 298.959 116.876 299.407C116.428 299.855 115.884 300.079 115.244 300.079ZM117.036 302.415V320.047H113.388V302.415H117.036ZM142.529 302.127C143.916 302.127 145.153 302.415 146.241 302.991C147.35 303.567 148.214 304.42 148.833 305.551C149.473 306.682 149.793 308.047 149.793 309.647V320.047H146.177V310.191C146.177 308.612 145.782 307.407 144.993 306.575C144.204 305.722 143.126 305.295 141.761 305.295C140.396 305.295 139.308 305.722 138.497 306.575C137.708 307.407 137.313 308.612 137.313 310.191V320.047H133.697V310.191C133.697 308.612 133.302 307.407 132.513 306.575C131.724 305.722 130.646 305.295 129.281 305.295C127.916 305.295 126.828 305.722 126.017 306.575C125.228 307.407 124.833 308.612 124.833 310.191V320.047H121.185V302.415H124.833V304.431C125.43 303.706 126.188 303.14 127.105 302.735C128.022 302.33 129.004 302.127 130.049 302.127C131.457 302.127 132.716 302.426 133.825 303.023C134.934 303.62 135.788 304.484 136.385 305.615C136.918 304.548 137.75 303.706 138.881 303.087C140.012 302.447 141.228 302.127 142.529 302.127ZM157.443 305.007C158.062 304.196 158.904 303.514 159.971 302.959C161.038 302.404 162.243 302.127 163.587 302.127C165.123 302.127 166.52 302.511 167.779 303.279C169.059 304.026 170.062 305.082 170.787 306.447C171.512 307.812 171.875 309.38 171.875 311.151C171.875 312.922 171.512 314.511 170.787 315.919C170.062 317.306 169.059 318.394 167.779 319.183C166.52 319.951 165.123 320.335 163.587 320.335C162.243 320.335 161.048 320.068 160.003 319.535C158.958 318.98 158.104 318.298 157.443 317.487V328.431H153.795V302.415H157.443V305.007ZM168.163 311.151C168.163 309.935 167.907 308.89 167.395 308.015C166.904 307.119 166.243 306.447 165.411 305.999C164.6 305.53 163.726 305.295 162.787 305.295C161.87 305.295 160.995 305.53 160.163 305.999C159.352 306.468 158.691 307.151 158.179 308.047C157.688 308.943 157.443 309.999 157.443 311.215C157.443 312.431 157.688 313.498 158.179 314.415C158.691 315.311 159.352 315.994 160.163 316.463C160.995 316.932 161.87 317.167 162.787 317.167C163.726 317.167 164.6 316.932 165.411 316.463C166.243 315.972 166.904 315.268 167.395 314.351C167.907 313.434 168.163 312.367 168.163 311.151ZM182.491 320.335C180.827 320.335 179.323 319.962 177.979 319.215C176.635 318.447 175.579 317.38 174.811 316.015C174.043 314.628 173.659 313.028 173.659 311.215C173.659 309.423 174.053 307.834 174.843 306.447C175.632 305.06 176.709 303.994 178.075 303.247C179.44 302.5 180.965 302.127 182.651 302.127C184.336 302.127 185.861 302.5 187.227 303.247C188.592 303.994 189.669 305.06 190.459 306.447C191.248 307.834 191.643 309.423 191.643 311.215C191.643 313.007 191.237 314.596 190.427 315.983C189.616 317.37 188.507 318.447 187.099 319.215C185.712 319.962 184.176 320.335 182.491 320.335ZM182.491 317.167C183.429 317.167 184.304 316.943 185.115 316.495C185.947 316.047 186.619 315.375 187.131 314.479C187.643 313.583 187.899 312.495 187.899 311.215C187.899 309.935 187.653 308.858 187.163 307.983C186.672 307.087 186.021 306.415 185.211 305.967C184.4 305.519 183.525 305.295 182.587 305.295C181.648 305.295 180.773 305.519 179.963 305.967C179.173 306.415 178.544 307.087 178.075 307.983C177.605 308.858 177.371 309.935 177.371 311.215C177.371 313.114 177.851 314.586 178.811 315.631C179.792 316.655 181.019 317.167 182.491 317.167ZM198.257 304.975C198.79 304.079 199.494 303.386 200.369 302.895C201.265 302.383 202.321 302.127 203.537 302.127V305.903H202.609C201.179 305.903 200.091 306.266 199.345 306.991C198.619 307.716 198.257 308.975 198.257 310.767V320.047H194.609V302.415H198.257V304.975ZM210.506 305.391V315.151C210.506 315.812 210.655 316.292 210.954 316.591C211.274 316.868 211.807 317.007 212.554 317.007H214.794V320.047H211.914C210.271 320.047 209.013 319.663 208.138 318.895C207.263 318.127 206.826 316.879 206.826 315.151V305.391H204.746V302.415H206.826V298.031H210.506V302.415H214.794V305.391H210.506ZM216.3 311.151C216.3 309.38 216.663 307.812 217.388 306.447C218.135 305.082 219.138 304.026 220.396 303.279C221.676 302.511 223.084 302.127 224.62 302.127C226.007 302.127 227.212 302.404 228.236 302.959C229.282 303.492 230.114 304.164 230.732 304.975V302.415H234.412V320.047H230.732V317.423C230.114 318.255 229.271 318.948 228.204 319.503C227.138 320.058 225.922 320.335 224.556 320.335C223.042 320.335 221.655 319.951 220.396 319.183C219.138 318.394 218.135 317.306 217.388 315.919C216.663 314.511 216.3 312.922 216.3 311.151ZM230.732 311.215C230.732 309.999 230.476 308.943 229.964 308.047C229.474 307.151 228.823 306.468 228.012 305.999C227.202 305.53 226.327 305.295 225.388 305.295C224.45 305.295 223.575 305.53 222.764 305.999C221.954 306.447 221.292 307.119 220.78 308.015C220.29 308.89 220.044 309.935 220.044 311.151C220.044 312.367 220.29 313.434 220.78 314.351C221.292 315.268 221.954 315.972 222.764 316.463C223.596 316.932 224.471 317.167 225.388 317.167C226.327 317.167 227.202 316.932 228.012 316.463C228.823 315.994 229.474 315.311 229.964 314.415C230.476 313.498 230.732 312.431 230.732 311.215ZM247.46 302.127C248.846 302.127 250.084 302.415 251.172 302.991C252.281 303.567 253.145 304.42 253.764 305.551C254.382 306.682 254.692 308.047 254.692 309.647V320.047H251.076V310.191C251.076 308.612 250.681 307.407 249.892 306.575C249.102 305.722 248.025 305.295 246.66 305.295C245.294 305.295 244.206 305.722 243.396 306.575C242.606 307.407 242.212 308.612 242.212 310.191V320.047H238.564V302.415H242.212V304.431C242.809 303.706 243.566 303.14 244.484 302.735C245.422 302.33 246.414 302.127 247.46 302.127ZM262.961 305.391V315.151C262.961 315.812 263.11 316.292 263.409 316.591C263.729 316.868 264.262 317.007 265.009 317.007H267.249V320.047H264.369C262.726 320.047 261.468 319.663 260.593 318.895C259.718 318.127 259.281 316.879 259.281 315.151V305.391H257.201V302.415H259.281V298.031H262.961V302.415H267.249V305.391H262.961Z" fill="#6664F2"/>
</svg>