<svg width="241" height="245" viewBox="0 0 241 245" fill="none" xmlns="http://www.w3.org/2000/svg">
<g filter="url(#filter0_d_28_2409)">
<rect x="10" y="6" width="221" height="225" fill="white"/>
</g>
<path d="M58.7999 53.2004H51.5999C51.1583 53.2004 50.7999 52.842 50.7999 52.4004V61.2004C50.7999 62.0836 50.0831 62.8004 49.1999 62.8004H40.3999C40.8415 62.8004 41.1999 63.1588 41.1999 63.6004V70.8004C41.1999 71.6836 41.9167 72.4004 42.7999 72.4004H58.7999C59.6831 72.4004 60.3999 71.6836 60.3999 70.8004V54.8004C60.3999 53.9172 59.6831 53.2004 58.7999 53.2004Z" fill="#B2D0FB"/>
<path d="M33.1996 43.5996H49.1996C50.0828 43.5996 50.7996 44.3164 50.7996 45.1996V61.1996C50.7996 62.0828 50.0828 62.7996 49.1996 62.7996H33.1996C32.3164 62.7996 31.5996 62.0828 31.5996 61.1996V45.1996C31.5996 44.3164 32.3164 43.5996 33.1996 43.5996Z" fill="#4B8BF7"/>
<rect x="10" y="6" width="221" height="3" fill="#4B8BF7"/>
<defs>
<filter id="filter0_d_28_2409" x="0" y="0" width="241" height="245" filterUnits="userSpaceOnUse" color-interpolation-filters="sRGB">
<feFlood flood-opacity="0" result="BackgroundImageFix"/>
<feColorMatrix in="SourceAlpha" type="matrix" values="0 0 0 0 0 0 0 0 0 0 0 0 0 0 0 0 0 0 127 0" result="hardAlpha"/>
<feOffset dy="4"/>
<feGaussianBlur stdDeviation="5"/>
<feComposite in2="hardAlpha" operator="out"/>
<feColorMatrix type="matrix" values="0 0 0 0 0 0 0 0 0 0.144 0 0 0 0 0.225 0 0 0 0.15 0"/>
<feBlend mode="normal" in2="BackgroundImageFix" result="effect1_dropShadow_28_2409"/>
<feBlend mode="normal" in="SourceGraphic" in2="effect1_dropShadow_28_2409" result="shape"/>
</filter>
</defs>
</svg>
