<svg width="241" height="245" viewBox="0 0 241 245" fill="none" xmlns="http://www.w3.org/2000/svg">
<g filter="url(#filter0_d_28_2409)">
<rect x="10" y="6" width="221" height="225" fill="white"/>
</g>
<g clip-path="url(#clip0_28_2409)">
<path d="M49.0814 57.935C49.0814 59.6963 47.6548 61.1229 45.8935 61.1229C44.1322 61.1229 42.7056 59.6963 42.7056 57.935C42.7056 56.1737 44.1322 54.7471 45.8935 54.7471C47.6548 54.7471 49.0814 56.1737 49.0814 57.935Z" fill="#52C3E5"/>
<path d="M52.2699 69.093C52.2763 68.5399 52.3767 68.0123 52.5568 67.5213L52.5457 67.5548C52.466 67.5293 52.3719 67.5102 52.2763 67.499H52.2699H39.5182C39.4162 67.5102 39.3222 67.5293 39.2329 67.558L39.2425 67.5548C39.4178 68.0123 39.5182 68.5399 39.5182 69.093C39.5182 69.6461 39.4178 70.1737 39.2329 70.6614L39.2425 70.6312C39.3222 70.6567 39.4162 70.6758 39.5119 70.6869H39.5182H52.2699C52.3719 70.6758 52.466 70.6567 52.5552 70.628L52.5457 70.6312C52.3767 70.1737 52.2763 69.6461 52.2699 69.0962V69.093Z" fill="#A0E8FE"/>
<path d="M61.8333 69.0934C61.8333 71.7346 59.6926 73.8753 57.0514 73.8753C54.4102 73.8753 52.2695 71.7346 52.2695 69.0934C52.2695 66.4522 54.4102 64.3115 57.0514 64.3115C59.6926 64.3115 61.8333 66.4522 61.8333 69.0934Z" fill="#52C3E5"/>
<path d="M61.8333 46.777C61.8333 49.4182 59.6926 51.5589 57.0514 51.5589C54.4102 51.5589 52.2695 49.4182 52.2695 46.777C52.2695 44.1358 54.4102 41.9951 57.0514 41.9951C59.6926 41.9951 61.8333 44.1358 61.8333 46.777Z" fill="#52C3E5"/>
<path d="M39.5179 69.0934C39.5179 71.7346 37.3772 73.8753 34.736 73.8753C32.0948 73.8753 29.9541 71.7346 29.9541 69.0934C29.9541 66.4522 32.0948 64.3115 34.736 64.3115C37.3772 64.3115 39.5179 66.4522 39.5179 69.0934Z" fill="#52C3E5"/>
<path d="M39.5179 46.777C39.5179 49.4182 37.3772 51.5589 34.736 51.5589C32.0948 51.5589 29.9541 49.4182 29.9541 46.777C29.9541 44.1358 32.0948 41.9951 34.736 41.9951C37.3772 41.9951 39.5179 44.1358 39.5179 46.777Z" fill="#52C3E5"/>
<path d="M34.7356 64.3111C35.2887 64.3174 35.8163 64.4179 36.3072 64.598L36.2737 64.5868C36.2992 64.5071 36.3184 64.4131 36.3295 64.3174V64.3111V51.5594C36.3184 51.4574 36.2992 51.3633 36.2705 51.2741L36.2737 51.2836C35.8163 51.4526 35.2887 51.553 34.7387 51.5594H34.7356C34.1825 51.553 33.6549 51.4526 33.1639 51.2725L33.1974 51.2836C33.1719 51.3633 33.1528 51.4574 33.1416 51.553V51.5594V64.3111C33.1528 64.4131 33.1719 64.5071 33.2006 64.5964L33.1974 64.5868C33.6549 64.4179 34.1825 64.3174 34.7324 64.3111H34.7356Z" fill="#A0E8FE"/>
<path d="M39.5184 46.7776C39.512 47.3307 39.4116 47.8583 39.2314 48.3492L39.2426 48.3157C39.3223 48.3412 39.4163 48.3604 39.512 48.3715H39.5184H52.27C52.3721 48.3604 52.4661 48.3412 52.5554 48.3125L52.5458 48.3157C52.3768 47.8583 52.2764 47.3307 52.27 46.7807V46.7776C52.2764 46.2244 52.3768 45.6968 52.557 45.2059L52.5458 45.2394C52.4661 45.2139 52.3721 45.1948 52.2764 45.1836H52.27H39.5184C39.4163 45.1948 39.3223 45.2139 39.233 45.2426L39.2426 45.2394C39.4116 45.6968 39.512 46.2244 39.5184 46.7744V46.7776Z" fill="#A0E8FE"/>
<path d="M57.0515 64.3104C57.6046 64.3168 58.1322 64.4172 58.6231 64.5974L58.5897 64.5862C58.6152 64.5065 58.6343 64.4125 58.6454 64.3168V64.3104V51.5588C58.6343 51.4567 58.6152 51.3627 58.5865 51.2734L58.5897 51.283C58.1322 51.4583 57.6046 51.5588 57.0515 51.5588C56.4984 51.5588 55.9708 51.4583 55.483 51.2734L55.5133 51.283C55.4878 51.3627 55.4687 51.4567 55.4575 51.5524V51.5588V64.3104C55.4687 64.4125 55.4878 64.5065 55.5165 64.5958L55.5133 64.5862C55.9708 64.4172 56.4984 64.3168 57.0483 64.3104H57.0515Z" fill="#A0E8FE"/>
</g>
<rect x="10" y="6" width="221" height="3" fill="#52C3E6"/>
<defs>
<filter id="filter0_d_28_2409" x="0" y="0" width="241" height="245" filterUnits="userSpaceOnUse" color-interpolation-filters="sRGB">
<feFlood flood-opacity="0" result="BackgroundImageFix"/>
<feColorMatrix in="SourceAlpha" type="matrix" values="0 0 0 0 0 0 0 0 0 0 0 0 0 0 0 0 0 0 127 0" result="hardAlpha"/>
<feOffset dy="4"/>
<feGaussianBlur stdDeviation="5"/>
<feComposite in2="hardAlpha" operator="out"/>
<feColorMatrix type="matrix" values="0 0 0 0 0 0 0 0 0 0.144 0 0 0 0 0.225 0 0 0 0.15 0"/>
<feBlend mode="normal" in2="BackgroundImageFix" result="effect1_dropShadow_28_2409"/>
<feBlend mode="normal" in="SourceGraphic" in2="effect1_dropShadow_28_2409" result="shape"/>
</filter>
<clipPath id="clip0_28_2409">
<rect width="31.8298" height="32" fill="white" transform="translate(30 42)"/>
</clipPath>
</defs>
</svg>
